<mxfile host="localhost" modified="2020-05-11T18:35:49.905Z" agent="5.0 (Windows NT 10.0; Win64; x64) AppleWebKit/537.36 (KHTML, like Gecko) Code/1.45.0 Chrome/78.0.3904.130 Electron/7.2.4 Safari/537.36" etag="zi2wejrX4PboaisyBfI0" version="13.0.9">
    <diagram id="YCRAzSdguC1DIKJ5nqVH" name="Page-1">
        <mxGraphModel dx="5917" dy="1988" grid="1" gridSize="10" guides="1" tooltips="1" connect="1" arrows="1" fold="1" page="1" pageScale="1" pageWidth="827" pageHeight="1169" math="0" shadow="0">
            <root>
                <mxCell id="0"/>
                <mxCell id="1" parent="0"/>
                <mxCell id="5" value="1" style="rounded=0;whiteSpace=wrap;html=1;" parent="1" vertex="1">
                    <mxGeometry x="-10" y="49" width="40" height="39" as="geometry"/>
                </mxCell>
                <mxCell id="6" value="2" style="rounded=0;whiteSpace=wrap;html=1;" parent="1" vertex="1">
                    <mxGeometry x="70" y="49" width="40" height="39" as="geometry"/>
                </mxCell>
                <mxCell id="7" value="3" style="rounded=0;whiteSpace=wrap;html=1;" parent="1" vertex="1">
                    <mxGeometry x="150" y="49" width="40" height="39" as="geometry"/>
                </mxCell>
                <mxCell id="8" value="4" style="rounded=0;whiteSpace=wrap;html=1;" parent="1" vertex="1">
                    <mxGeometry x="230" y="49" width="40" height="39" as="geometry"/>
                </mxCell>
                <mxCell id="9" value="5" style="rounded=0;whiteSpace=wrap;html=1;" parent="1" vertex="1">
                    <mxGeometry x="310" y="49" width="40" height="39" as="geometry"/>
                </mxCell>
                <mxCell id="10" value="6" style="rounded=0;whiteSpace=wrap;html=1;" parent="1" vertex="1">
                    <mxGeometry x="390" y="49" width="40" height="39" as="geometry"/>
                </mxCell>
                <mxCell id="11" value="7" style="rounded=0;whiteSpace=wrap;html=1;" parent="1" vertex="1">
                    <mxGeometry x="470" y="49" width="40" height="39" as="geometry"/>
                </mxCell>
                <mxCell id="12" value="8" style="rounded=0;whiteSpace=wrap;html=1;" parent="1" vertex="1">
                    <mxGeometry x="550" y="49" width="40" height="39" as="geometry"/>
                </mxCell>
                <mxCell id="13" value="9" style="rounded=0;whiteSpace=wrap;html=1;" parent="1" vertex="1">
                    <mxGeometry x="630" y="49" width="40" height="39" as="geometry"/>
                </mxCell>
                <mxCell id="14" value="10" style="rounded=0;whiteSpace=wrap;html=1;" parent="1" vertex="1">
                    <mxGeometry x="710" y="49" width="40" height="39" as="geometry"/>
                </mxCell>
                <mxCell id="15" value="1" style="rounded=0;whiteSpace=wrap;html=1;" parent="1" vertex="1">
                    <mxGeometry x="-10" y="129" width="40" height="39" as="geometry"/>
                </mxCell>
                <mxCell id="16" value="2" style="rounded=0;whiteSpace=wrap;html=1;" parent="1" vertex="1">
                    <mxGeometry x="70" y="129" width="40" height="39" as="geometry"/>
                </mxCell>
                <mxCell id="17" value="3" style="rounded=0;whiteSpace=wrap;html=1;" parent="1" vertex="1">
                    <mxGeometry x="150" y="129" width="40" height="39" as="geometry"/>
                </mxCell>
                <mxCell id="18" value="4" style="rounded=0;whiteSpace=wrap;html=1;" parent="1" vertex="1">
                    <mxGeometry x="230" y="129" width="40" height="39" as="geometry"/>
                </mxCell>
                <mxCell id="19" value="5" style="rounded=0;whiteSpace=wrap;html=1;" parent="1" vertex="1">
                    <mxGeometry x="310" y="129" width="40" height="39" as="geometry"/>
                </mxCell>
                <mxCell id="20" value="6" style="rounded=0;whiteSpace=wrap;html=1;" parent="1" vertex="1">
                    <mxGeometry x="390" y="129" width="40" height="39" as="geometry"/>
                </mxCell>
                <mxCell id="21" value="7" style="rounded=0;whiteSpace=wrap;html=1;" parent="1" vertex="1">
                    <mxGeometry x="470" y="129" width="40" height="39" as="geometry"/>
                </mxCell>
                <mxCell id="22" value="8" style="rounded=0;whiteSpace=wrap;html=1;" parent="1" vertex="1">
                    <mxGeometry x="550" y="129" width="40" height="39" as="geometry"/>
                </mxCell>
                <mxCell id="23" value="9" style="rounded=0;whiteSpace=wrap;html=1;" parent="1" vertex="1">
                    <mxGeometry x="630" y="129" width="40" height="39" as="geometry"/>
                </mxCell>
                <mxCell id="24" value="10" style="rounded=0;whiteSpace=wrap;html=1;" parent="1" vertex="1">
                    <mxGeometry x="710" y="129" width="40" height="39" as="geometry"/>
                </mxCell>
                <mxCell id="25" value="1" style="rounded=0;whiteSpace=wrap;html=1;" parent="1" vertex="1">
                    <mxGeometry x="-10" y="209" width="40" height="39" as="geometry"/>
                </mxCell>
                <mxCell id="26" value="2" style="rounded=0;whiteSpace=wrap;html=1;" parent="1" vertex="1">
                    <mxGeometry x="70" y="209" width="40" height="39" as="geometry"/>
                </mxCell>
                <mxCell id="27" value="3" style="rounded=0;whiteSpace=wrap;html=1;" parent="1" vertex="1">
                    <mxGeometry x="150" y="209" width="40" height="39" as="geometry"/>
                </mxCell>
                <mxCell id="28" value="4" style="rounded=0;whiteSpace=wrap;html=1;" parent="1" vertex="1">
                    <mxGeometry x="230" y="209" width="40" height="39" as="geometry"/>
                </mxCell>
                <mxCell id="29" value="5" style="rounded=0;whiteSpace=wrap;html=1;" parent="1" vertex="1">
                    <mxGeometry x="310" y="209" width="40" height="39" as="geometry"/>
                </mxCell>
                <mxCell id="30" value="6" style="rounded=0;whiteSpace=wrap;html=1;" parent="1" vertex="1">
                    <mxGeometry x="390" y="209" width="40" height="39" as="geometry"/>
                </mxCell>
                <mxCell id="31" value="7" style="rounded=0;whiteSpace=wrap;html=1;" parent="1" vertex="1">
                    <mxGeometry x="470" y="209" width="40" height="39" as="geometry"/>
                </mxCell>
                <mxCell id="32" value="8" style="rounded=0;whiteSpace=wrap;html=1;" parent="1" vertex="1">
                    <mxGeometry x="550" y="209" width="40" height="39" as="geometry"/>
                </mxCell>
                <mxCell id="33" value="9" style="rounded=0;whiteSpace=wrap;html=1;" parent="1" vertex="1">
                    <mxGeometry x="630" y="209" width="40" height="39" as="geometry"/>
                </mxCell>
                <mxCell id="34" value="10" style="rounded=0;whiteSpace=wrap;html=1;" parent="1" vertex="1">
                    <mxGeometry x="710" y="209" width="40" height="39" as="geometry"/>
                </mxCell>
                <mxCell id="35" value="1" style="rounded=0;whiteSpace=wrap;html=1;" parent="1" vertex="1">
                    <mxGeometry x="-10" y="289" width="40" height="39" as="geometry"/>
                </mxCell>
                <mxCell id="36" value="2" style="rounded=0;whiteSpace=wrap;html=1;" parent="1" vertex="1">
                    <mxGeometry x="70" y="289" width="40" height="39" as="geometry"/>
                </mxCell>
                <mxCell id="37" value="3" style="rounded=0;whiteSpace=wrap;html=1;" parent="1" vertex="1">
                    <mxGeometry x="150" y="289" width="40" height="39" as="geometry"/>
                </mxCell>
                <mxCell id="38" value="4" style="rounded=0;whiteSpace=wrap;html=1;" parent="1" vertex="1">
                    <mxGeometry x="230" y="289" width="40" height="39" as="geometry"/>
                </mxCell>
                <mxCell id="39" value="5" style="rounded=0;whiteSpace=wrap;html=1;" parent="1" vertex="1">
                    <mxGeometry x="310" y="289" width="40" height="39" as="geometry"/>
                </mxCell>
                <mxCell id="40" value="6" style="rounded=0;whiteSpace=wrap;html=1;" parent="1" vertex="1">
                    <mxGeometry x="390" y="289" width="40" height="39" as="geometry"/>
                </mxCell>
                <mxCell id="41" value="7" style="rounded=0;whiteSpace=wrap;html=1;" parent="1" vertex="1">
                    <mxGeometry x="470" y="289" width="40" height="39" as="geometry"/>
                </mxCell>
                <mxCell id="42" value="8" style="rounded=0;whiteSpace=wrap;html=1;" parent="1" vertex="1">
                    <mxGeometry x="550" y="289" width="40" height="39" as="geometry"/>
                </mxCell>
                <mxCell id="43" value="9" style="rounded=0;whiteSpace=wrap;html=1;" parent="1" vertex="1">
                    <mxGeometry x="630" y="289" width="40" height="39" as="geometry"/>
                </mxCell>
                <mxCell id="44" value="10" style="rounded=0;whiteSpace=wrap;html=1;" parent="1" vertex="1">
                    <mxGeometry x="710" y="289" width="40" height="39" as="geometry"/>
                </mxCell>
                <mxCell id="45" value="1" style="rounded=0;whiteSpace=wrap;html=1;" parent="1" vertex="1">
                    <mxGeometry x="-10" y="369" width="40" height="39" as="geometry"/>
                </mxCell>
                <mxCell id="46" value="2" style="rounded=0;whiteSpace=wrap;html=1;" parent="1" vertex="1">
                    <mxGeometry x="70" y="369" width="40" height="39" as="geometry"/>
                </mxCell>
                <mxCell id="47" value="3" style="rounded=0;whiteSpace=wrap;html=1;" parent="1" vertex="1">
                    <mxGeometry x="150" y="369" width="40" height="39" as="geometry"/>
                </mxCell>
                <mxCell id="48" value="4" style="rounded=0;whiteSpace=wrap;html=1;" parent="1" vertex="1">
                    <mxGeometry x="230" y="369" width="40" height="39" as="geometry"/>
                </mxCell>
                <mxCell id="49" value="5" style="rounded=0;whiteSpace=wrap;html=1;" parent="1" vertex="1">
                    <mxGeometry x="310" y="369" width="40" height="39" as="geometry"/>
                </mxCell>
                <mxCell id="50" value="6" style="rounded=0;whiteSpace=wrap;html=1;" parent="1" vertex="1">
                    <mxGeometry x="390" y="369" width="40" height="39" as="geometry"/>
                </mxCell>
                <mxCell id="51" value="7" style="rounded=0;whiteSpace=wrap;html=1;" parent="1" vertex="1">
                    <mxGeometry x="470" y="369" width="40" height="39" as="geometry"/>
                </mxCell>
                <mxCell id="52" value="8" style="rounded=0;whiteSpace=wrap;html=1;" parent="1" vertex="1">
                    <mxGeometry x="550" y="369" width="40" height="39" as="geometry"/>
                </mxCell>
                <mxCell id="53" value="9" style="rounded=0;whiteSpace=wrap;html=1;" parent="1" vertex="1">
                    <mxGeometry x="630" y="369" width="40" height="39" as="geometry"/>
                </mxCell>
                <mxCell id="54" value="10" style="rounded=0;whiteSpace=wrap;html=1;" parent="1" vertex="1">
                    <mxGeometry x="710" y="369" width="40" height="39" as="geometry"/>
                </mxCell>
                <mxCell id="55" value="1" style="rounded=0;whiteSpace=wrap;html=1;" parent="1" vertex="1">
                    <mxGeometry x="-10" y="480" width="40" height="40" as="geometry"/>
                </mxCell>
                <mxCell id="56" value="2" style="rounded=0;whiteSpace=wrap;html=1;" parent="1" vertex="1">
                    <mxGeometry x="70" y="480" width="40" height="40" as="geometry"/>
                </mxCell>
                <mxCell id="57" value="3" style="rounded=0;whiteSpace=wrap;html=1;" parent="1" vertex="1">
                    <mxGeometry x="150" y="480" width="40" height="40" as="geometry"/>
                </mxCell>
                <mxCell id="58" value="4" style="rounded=0;whiteSpace=wrap;html=1;" parent="1" vertex="1">
                    <mxGeometry x="230" y="480" width="40" height="40" as="geometry"/>
                </mxCell>
                <mxCell id="59" value="5" style="rounded=0;whiteSpace=wrap;html=1;" parent="1" vertex="1">
                    <mxGeometry x="310" y="480" width="40" height="40" as="geometry"/>
                </mxCell>
                <mxCell id="60" value="6" style="rounded=0;whiteSpace=wrap;html=1;" parent="1" vertex="1">
                    <mxGeometry x="390" y="480" width="40" height="40" as="geometry"/>
                </mxCell>
                <mxCell id="61" value="7" style="rounded=0;whiteSpace=wrap;html=1;" parent="1" vertex="1">
                    <mxGeometry x="470" y="480" width="40" height="40" as="geometry"/>
                </mxCell>
                <mxCell id="62" value="8" style="rounded=0;whiteSpace=wrap;html=1;" parent="1" vertex="1">
                    <mxGeometry x="550" y="480" width="40" height="40" as="geometry"/>
                </mxCell>
                <mxCell id="63" value="9" style="rounded=0;whiteSpace=wrap;html=1;" parent="1" vertex="1">
                    <mxGeometry x="630" y="480" width="40" height="40" as="geometry"/>
                </mxCell>
                <mxCell id="64" value="10" style="rounded=0;whiteSpace=wrap;html=1;" parent="1" vertex="1">
                    <mxGeometry x="710" y="480" width="40" height="40" as="geometry"/>
                </mxCell>
                <mxCell id="65" value="1" style="rounded=0;whiteSpace=wrap;html=1;" parent="1" vertex="1">
                    <mxGeometry x="-10" y="560" width="40" height="40" as="geometry"/>
                </mxCell>
                <mxCell id="66" value="2" style="rounded=0;whiteSpace=wrap;html=1;" parent="1" vertex="1">
                    <mxGeometry x="70" y="560" width="40" height="40" as="geometry"/>
                </mxCell>
                <mxCell id="67" value="3" style="rounded=0;whiteSpace=wrap;html=1;" parent="1" vertex="1">
                    <mxGeometry x="150" y="560" width="40" height="40" as="geometry"/>
                </mxCell>
                <mxCell id="68" value="4" style="rounded=0;whiteSpace=wrap;html=1;" parent="1" vertex="1">
                    <mxGeometry x="230" y="560" width="40" height="40" as="geometry"/>
                </mxCell>
                <mxCell id="69" value="5" style="rounded=0;whiteSpace=wrap;html=1;" parent="1" vertex="1">
                    <mxGeometry x="310" y="560" width="40" height="40" as="geometry"/>
                </mxCell>
                <mxCell id="70" value="6" style="rounded=0;whiteSpace=wrap;html=1;" parent="1" vertex="1">
                    <mxGeometry x="390" y="560" width="40" height="40" as="geometry"/>
                </mxCell>
                <mxCell id="71" value="7" style="rounded=0;whiteSpace=wrap;html=1;" parent="1" vertex="1">
                    <mxGeometry x="470" y="560" width="40" height="40" as="geometry"/>
                </mxCell>
                <mxCell id="72" value="8" style="rounded=0;whiteSpace=wrap;html=1;" parent="1" vertex="1">
                    <mxGeometry x="550" y="560" width="40" height="40" as="geometry"/>
                </mxCell>
                <mxCell id="73" value="9" style="rounded=0;whiteSpace=wrap;html=1;" parent="1" vertex="1">
                    <mxGeometry x="630" y="560" width="40" height="40" as="geometry"/>
                </mxCell>
                <mxCell id="74" value="10" style="rounded=0;whiteSpace=wrap;html=1;" parent="1" vertex="1">
                    <mxGeometry x="710" y="560" width="40" height="40" as="geometry"/>
                </mxCell>
                <mxCell id="75" value="1" style="rounded=0;whiteSpace=wrap;html=1;" parent="1" vertex="1">
                    <mxGeometry x="-10" y="640" width="40" height="40" as="geometry"/>
                </mxCell>
                <mxCell id="76" value="2" style="rounded=0;whiteSpace=wrap;html=1;" parent="1" vertex="1">
                    <mxGeometry x="70" y="640" width="40" height="40" as="geometry"/>
                </mxCell>
                <mxCell id="77" value="3" style="rounded=0;whiteSpace=wrap;html=1;" parent="1" vertex="1">
                    <mxGeometry x="150" y="640" width="40" height="40" as="geometry"/>
                </mxCell>
                <mxCell id="78" value="4" style="rounded=0;whiteSpace=wrap;html=1;" parent="1" vertex="1">
                    <mxGeometry x="230" y="640" width="40" height="40" as="geometry"/>
                </mxCell>
                <mxCell id="79" value="5" style="rounded=0;whiteSpace=wrap;html=1;" parent="1" vertex="1">
                    <mxGeometry x="310" y="640" width="40" height="40" as="geometry"/>
                </mxCell>
                <mxCell id="80" value="6" style="rounded=0;whiteSpace=wrap;html=1;" parent="1" vertex="1">
                    <mxGeometry x="390" y="640" width="40" height="40" as="geometry"/>
                </mxCell>
                <mxCell id="81" value="7" style="rounded=0;whiteSpace=wrap;html=1;" parent="1" vertex="1">
                    <mxGeometry x="470" y="640" width="40" height="40" as="geometry"/>
                </mxCell>
                <mxCell id="82" value="8" style="rounded=0;whiteSpace=wrap;html=1;" parent="1" vertex="1">
                    <mxGeometry x="550" y="640" width="40" height="40" as="geometry"/>
                </mxCell>
                <mxCell id="83" value="9" style="rounded=0;whiteSpace=wrap;html=1;" parent="1" vertex="1">
                    <mxGeometry x="630" y="640" width="40" height="40" as="geometry"/>
                </mxCell>
                <mxCell id="84" value="10" style="rounded=0;whiteSpace=wrap;html=1;" parent="1" vertex="1">
                    <mxGeometry x="710" y="640" width="40" height="40" as="geometry"/>
                </mxCell>
                <mxCell id="85" value="1" style="rounded=0;whiteSpace=wrap;html=1;" parent="1" vertex="1">
                    <mxGeometry x="-10" y="720" width="40" height="40" as="geometry"/>
                </mxCell>
                <mxCell id="86" value="2" style="rounded=0;whiteSpace=wrap;html=1;" parent="1" vertex="1">
                    <mxGeometry x="70" y="720" width="40" height="40" as="geometry"/>
                </mxCell>
                <mxCell id="87" value="3" style="rounded=0;whiteSpace=wrap;html=1;" parent="1" vertex="1">
                    <mxGeometry x="150" y="720" width="40" height="40" as="geometry"/>
                </mxCell>
                <mxCell id="88" value="4" style="rounded=0;whiteSpace=wrap;html=1;" parent="1" vertex="1">
                    <mxGeometry x="230" y="720" width="40" height="40" as="geometry"/>
                </mxCell>
                <mxCell id="89" value="5" style="rounded=0;whiteSpace=wrap;html=1;" parent="1" vertex="1">
                    <mxGeometry x="310" y="720" width="40" height="40" as="geometry"/>
                </mxCell>
                <mxCell id="90" value="6" style="rounded=0;whiteSpace=wrap;html=1;" parent="1" vertex="1">
                    <mxGeometry x="390" y="720" width="40" height="40" as="geometry"/>
                </mxCell>
                <mxCell id="91" value="7" style="rounded=0;whiteSpace=wrap;html=1;" parent="1" vertex="1">
                    <mxGeometry x="470" y="720" width="40" height="40" as="geometry"/>
                </mxCell>
                <mxCell id="92" value="8" style="rounded=0;whiteSpace=wrap;html=1;" parent="1" vertex="1">
                    <mxGeometry x="550" y="720" width="40" height="40" as="geometry"/>
                </mxCell>
                <mxCell id="93" value="9" style="rounded=0;whiteSpace=wrap;html=1;" parent="1" vertex="1">
                    <mxGeometry x="630" y="720" width="40" height="40" as="geometry"/>
                </mxCell>
                <mxCell id="94" value="10" style="rounded=0;whiteSpace=wrap;html=1;" parent="1" vertex="1">
                    <mxGeometry x="710" y="720" width="40" height="40" as="geometry"/>
                </mxCell>
                <mxCell id="95" value="1" style="rounded=0;whiteSpace=wrap;html=1;" parent="1" vertex="1">
                    <mxGeometry x="-10" y="800" width="40" height="40" as="geometry"/>
                </mxCell>
                <mxCell id="96" value="2" style="rounded=0;whiteSpace=wrap;html=1;" parent="1" vertex="1">
                    <mxGeometry x="70" y="800" width="40" height="40" as="geometry"/>
                </mxCell>
                <mxCell id="97" value="3" style="rounded=0;whiteSpace=wrap;html=1;" parent="1" vertex="1">
                    <mxGeometry x="150" y="800" width="40" height="40" as="geometry"/>
                </mxCell>
                <mxCell id="98" value="4" style="rounded=0;whiteSpace=wrap;html=1;" parent="1" vertex="1">
                    <mxGeometry x="230" y="800" width="40" height="40" as="geometry"/>
                </mxCell>
                <mxCell id="99" value="5" style="rounded=0;whiteSpace=wrap;html=1;" parent="1" vertex="1">
                    <mxGeometry x="310" y="800" width="40" height="40" as="geometry"/>
                </mxCell>
                <mxCell id="100" value="6" style="rounded=0;whiteSpace=wrap;html=1;" parent="1" vertex="1">
                    <mxGeometry x="390" y="800" width="40" height="40" as="geometry"/>
                </mxCell>
                <mxCell id="101" value="7" style="rounded=0;whiteSpace=wrap;html=1;" parent="1" vertex="1">
                    <mxGeometry x="470" y="800" width="40" height="40" as="geometry"/>
                </mxCell>
                <mxCell id="102" value="8" style="rounded=0;whiteSpace=wrap;html=1;" parent="1" vertex="1">
                    <mxGeometry x="550" y="800" width="40" height="40" as="geometry"/>
                </mxCell>
                <mxCell id="103" value="9" style="rounded=0;whiteSpace=wrap;html=1;" parent="1" vertex="1">
                    <mxGeometry x="630" y="800" width="40" height="40" as="geometry"/>
                </mxCell>
                <mxCell id="104" value="10" style="rounded=0;whiteSpace=wrap;html=1;" parent="1" vertex="1">
                    <mxGeometry x="710" y="800" width="40" height="40" as="geometry"/>
                </mxCell>
                <mxCell id="105" value="1" style="rounded=0;whiteSpace=wrap;html=1;" parent="1" vertex="1">
                    <mxGeometry x="790" y="49" width="40" height="39" as="geometry"/>
                </mxCell>
                <mxCell id="106" value="2" style="rounded=0;whiteSpace=wrap;html=1;" parent="1" vertex="1">
                    <mxGeometry x="870" y="49" width="40" height="39" as="geometry"/>
                </mxCell>
                <mxCell id="107" value="3" style="rounded=0;whiteSpace=wrap;html=1;" parent="1" vertex="1">
                    <mxGeometry x="950" y="49" width="40" height="39" as="geometry"/>
                </mxCell>
                <mxCell id="108" value="4" style="rounded=0;whiteSpace=wrap;html=1;" parent="1" vertex="1">
                    <mxGeometry x="1030" y="49" width="40" height="39" as="geometry"/>
                </mxCell>
                <mxCell id="109" value="5" style="rounded=0;whiteSpace=wrap;html=1;" parent="1" vertex="1">
                    <mxGeometry x="1110" y="49" width="40" height="39" as="geometry"/>
                </mxCell>
                <mxCell id="110" value="6" style="rounded=0;whiteSpace=wrap;html=1;" parent="1" vertex="1">
                    <mxGeometry x="1190" y="49" width="40" height="39" as="geometry"/>
                </mxCell>
                <mxCell id="111" value="7" style="rounded=0;whiteSpace=wrap;html=1;" parent="1" vertex="1">
                    <mxGeometry x="1270" y="49" width="40" height="39" as="geometry"/>
                </mxCell>
                <mxCell id="112" value="8" style="rounded=0;whiteSpace=wrap;html=1;" parent="1" vertex="1">
                    <mxGeometry x="1350" y="49" width="40" height="39" as="geometry"/>
                </mxCell>
                <mxCell id="113" value="9" style="rounded=0;whiteSpace=wrap;html=1;" parent="1" vertex="1">
                    <mxGeometry x="1430" y="49" width="40" height="39" as="geometry"/>
                </mxCell>
                <mxCell id="114" value="10" style="rounded=0;whiteSpace=wrap;html=1;" parent="1" vertex="1">
                    <mxGeometry x="1510" y="49" width="40" height="39" as="geometry"/>
                </mxCell>
                <mxCell id="115" value="1" style="rounded=0;whiteSpace=wrap;html=1;" parent="1" vertex="1">
                    <mxGeometry x="790" y="129" width="40" height="39" as="geometry"/>
                </mxCell>
                <mxCell id="116" value="2" style="rounded=0;whiteSpace=wrap;html=1;" parent="1" vertex="1">
                    <mxGeometry x="870" y="129" width="40" height="39" as="geometry"/>
                </mxCell>
                <mxCell id="117" value="3" style="rounded=0;whiteSpace=wrap;html=1;" parent="1" vertex="1">
                    <mxGeometry x="950" y="129" width="40" height="39" as="geometry"/>
                </mxCell>
                <mxCell id="118" value="4" style="rounded=0;whiteSpace=wrap;html=1;" parent="1" vertex="1">
                    <mxGeometry x="1030" y="129" width="40" height="39" as="geometry"/>
                </mxCell>
                <mxCell id="119" value="5" style="rounded=0;whiteSpace=wrap;html=1;" parent="1" vertex="1">
                    <mxGeometry x="1110" y="129" width="40" height="39" as="geometry"/>
                </mxCell>
                <mxCell id="120" value="6" style="rounded=0;whiteSpace=wrap;html=1;" parent="1" vertex="1">
                    <mxGeometry x="1190" y="129" width="40" height="39" as="geometry"/>
                </mxCell>
                <mxCell id="121" value="7" style="rounded=0;whiteSpace=wrap;html=1;" parent="1" vertex="1">
                    <mxGeometry x="1270" y="129" width="40" height="39" as="geometry"/>
                </mxCell>
                <mxCell id="122" value="8" style="rounded=0;whiteSpace=wrap;html=1;" parent="1" vertex="1">
                    <mxGeometry x="1350" y="129" width="40" height="39" as="geometry"/>
                </mxCell>
                <mxCell id="123" value="9" style="rounded=0;whiteSpace=wrap;html=1;" parent="1" vertex="1">
                    <mxGeometry x="1430" y="129" width="40" height="39" as="geometry"/>
                </mxCell>
                <mxCell id="124" value="10" style="rounded=0;whiteSpace=wrap;html=1;" parent="1" vertex="1">
                    <mxGeometry x="1510" y="129" width="40" height="39" as="geometry"/>
                </mxCell>
                <mxCell id="125" value="1" style="rounded=0;whiteSpace=wrap;html=1;" parent="1" vertex="1">
                    <mxGeometry x="790" y="209" width="40" height="39" as="geometry"/>
                </mxCell>
                <mxCell id="126" value="2" style="rounded=0;whiteSpace=wrap;html=1;" parent="1" vertex="1">
                    <mxGeometry x="870" y="209" width="40" height="39" as="geometry"/>
                </mxCell>
                <mxCell id="127" value="3" style="rounded=0;whiteSpace=wrap;html=1;" parent="1" vertex="1">
                    <mxGeometry x="950" y="209" width="40" height="39" as="geometry"/>
                </mxCell>
                <mxCell id="128" value="4" style="rounded=0;whiteSpace=wrap;html=1;" parent="1" vertex="1">
                    <mxGeometry x="1030" y="209" width="40" height="39" as="geometry"/>
                </mxCell>
                <mxCell id="129" value="5" style="rounded=0;whiteSpace=wrap;html=1;" parent="1" vertex="1">
                    <mxGeometry x="1110" y="209" width="40" height="39" as="geometry"/>
                </mxCell>
                <mxCell id="130" value="6" style="rounded=0;whiteSpace=wrap;html=1;" parent="1" vertex="1">
                    <mxGeometry x="1190" y="209" width="40" height="39" as="geometry"/>
                </mxCell>
                <mxCell id="131" value="7" style="rounded=0;whiteSpace=wrap;html=1;" parent="1" vertex="1">
                    <mxGeometry x="1270" y="209" width="40" height="39" as="geometry"/>
                </mxCell>
                <mxCell id="132" value="8" style="rounded=0;whiteSpace=wrap;html=1;" parent="1" vertex="1">
                    <mxGeometry x="1350" y="209" width="40" height="39" as="geometry"/>
                </mxCell>
                <mxCell id="133" value="9" style="rounded=0;whiteSpace=wrap;html=1;" parent="1" vertex="1">
                    <mxGeometry x="1430" y="209" width="40" height="39" as="geometry"/>
                </mxCell>
                <mxCell id="134" value="10" style="rounded=0;whiteSpace=wrap;html=1;" parent="1" vertex="1">
                    <mxGeometry x="1510" y="209" width="40" height="39" as="geometry"/>
                </mxCell>
                <mxCell id="135" value="1" style="rounded=0;whiteSpace=wrap;html=1;" parent="1" vertex="1">
                    <mxGeometry x="790" y="289" width="40" height="39" as="geometry"/>
                </mxCell>
                <mxCell id="136" value="2" style="rounded=0;whiteSpace=wrap;html=1;" parent="1" vertex="1">
                    <mxGeometry x="870" y="289" width="40" height="39" as="geometry"/>
                </mxCell>
                <mxCell id="137" value="3" style="rounded=0;whiteSpace=wrap;html=1;" parent="1" vertex="1">
                    <mxGeometry x="950" y="289" width="40" height="39" as="geometry"/>
                </mxCell>
                <mxCell id="138" value="4" style="rounded=0;whiteSpace=wrap;html=1;" parent="1" vertex="1">
                    <mxGeometry x="1030" y="289" width="40" height="39" as="geometry"/>
                </mxCell>
                <mxCell id="139" value="5" style="rounded=0;whiteSpace=wrap;html=1;" parent="1" vertex="1">
                    <mxGeometry x="1110" y="289" width="40" height="39" as="geometry"/>
                </mxCell>
                <mxCell id="140" value="6" style="rounded=0;whiteSpace=wrap;html=1;" parent="1" vertex="1">
                    <mxGeometry x="1190" y="289" width="40" height="39" as="geometry"/>
                </mxCell>
                <mxCell id="141" value="7" style="rounded=0;whiteSpace=wrap;html=1;" parent="1" vertex="1">
                    <mxGeometry x="1270" y="289" width="40" height="39" as="geometry"/>
                </mxCell>
                <mxCell id="142" value="8" style="rounded=0;whiteSpace=wrap;html=1;" parent="1" vertex="1">
                    <mxGeometry x="1350" y="289" width="40" height="39" as="geometry"/>
                </mxCell>
                <mxCell id="143" value="9" style="rounded=0;whiteSpace=wrap;html=1;" parent="1" vertex="1">
                    <mxGeometry x="1430" y="289" width="40" height="39" as="geometry"/>
                </mxCell>
                <mxCell id="144" value="10" style="rounded=0;whiteSpace=wrap;html=1;" parent="1" vertex="1">
                    <mxGeometry x="1510" y="289" width="40" height="39" as="geometry"/>
                </mxCell>
                <mxCell id="145" value="1" style="rounded=0;whiteSpace=wrap;html=1;" parent="1" vertex="1">
                    <mxGeometry x="790" y="369" width="40" height="39" as="geometry"/>
                </mxCell>
                <mxCell id="146" value="2" style="rounded=0;whiteSpace=wrap;html=1;" parent="1" vertex="1">
                    <mxGeometry x="870" y="369" width="40" height="39" as="geometry"/>
                </mxCell>
                <mxCell id="147" value="3" style="rounded=0;whiteSpace=wrap;html=1;" parent="1" vertex="1">
                    <mxGeometry x="950" y="369" width="40" height="39" as="geometry"/>
                </mxCell>
                <mxCell id="148" value="4" style="rounded=0;whiteSpace=wrap;html=1;" parent="1" vertex="1">
                    <mxGeometry x="1030" y="369" width="40" height="39" as="geometry"/>
                </mxCell>
                <mxCell id="149" value="5" style="rounded=0;whiteSpace=wrap;html=1;" parent="1" vertex="1">
                    <mxGeometry x="1110" y="369" width="40" height="39" as="geometry"/>
                </mxCell>
                <mxCell id="150" value="6" style="rounded=0;whiteSpace=wrap;html=1;" parent="1" vertex="1">
                    <mxGeometry x="1190" y="369" width="40" height="39" as="geometry"/>
                </mxCell>
                <mxCell id="151" value="7" style="rounded=0;whiteSpace=wrap;html=1;" parent="1" vertex="1">
                    <mxGeometry x="1270" y="369" width="40" height="39" as="geometry"/>
                </mxCell>
                <mxCell id="152" value="8" style="rounded=0;whiteSpace=wrap;html=1;" parent="1" vertex="1">
                    <mxGeometry x="1350" y="369" width="40" height="39" as="geometry"/>
                </mxCell>
                <mxCell id="153" value="9" style="rounded=0;whiteSpace=wrap;html=1;" parent="1" vertex="1">
                    <mxGeometry x="1430" y="369" width="40" height="39" as="geometry"/>
                </mxCell>
                <mxCell id="154" value="10" style="rounded=0;whiteSpace=wrap;html=1;" parent="1" vertex="1">
                    <mxGeometry x="1510" y="369" width="40" height="39" as="geometry"/>
                </mxCell>
                <mxCell id="155" value="1" style="rounded=0;whiteSpace=wrap;html=1;" parent="1" vertex="1">
                    <mxGeometry x="790" y="480" width="40" height="40" as="geometry"/>
                </mxCell>
                <mxCell id="156" value="2" style="rounded=0;whiteSpace=wrap;html=1;" parent="1" vertex="1">
                    <mxGeometry x="870" y="480" width="40" height="40" as="geometry"/>
                </mxCell>
                <mxCell id="157" value="3" style="rounded=0;whiteSpace=wrap;html=1;" parent="1" vertex="1">
                    <mxGeometry x="950" y="480" width="40" height="40" as="geometry"/>
                </mxCell>
                <mxCell id="158" value="4" style="rounded=0;whiteSpace=wrap;html=1;" parent="1" vertex="1">
                    <mxGeometry x="1030" y="480" width="40" height="40" as="geometry"/>
                </mxCell>
                <mxCell id="159" value="5" style="rounded=0;whiteSpace=wrap;html=1;" parent="1" vertex="1">
                    <mxGeometry x="1110" y="480" width="40" height="40" as="geometry"/>
                </mxCell>
                <mxCell id="160" value="6" style="rounded=0;whiteSpace=wrap;html=1;" parent="1" vertex="1">
                    <mxGeometry x="1190" y="480" width="40" height="40" as="geometry"/>
                </mxCell>
                <mxCell id="161" value="7" style="rounded=0;whiteSpace=wrap;html=1;" parent="1" vertex="1">
                    <mxGeometry x="1270" y="480" width="40" height="40" as="geometry"/>
                </mxCell>
                <mxCell id="162" value="8" style="rounded=0;whiteSpace=wrap;html=1;" parent="1" vertex="1">
                    <mxGeometry x="1350" y="480" width="40" height="40" as="geometry"/>
                </mxCell>
                <mxCell id="163" value="9" style="rounded=0;whiteSpace=wrap;html=1;" parent="1" vertex="1">
                    <mxGeometry x="1430" y="480" width="40" height="40" as="geometry"/>
                </mxCell>
                <mxCell id="164" value="10" style="rounded=0;whiteSpace=wrap;html=1;" parent="1" vertex="1">
                    <mxGeometry x="1510" y="480" width="40" height="40" as="geometry"/>
                </mxCell>
                <mxCell id="165" value="1" style="rounded=0;whiteSpace=wrap;html=1;" parent="1" vertex="1">
                    <mxGeometry x="790" y="560" width="40" height="40" as="geometry"/>
                </mxCell>
                <mxCell id="166" value="2" style="rounded=0;whiteSpace=wrap;html=1;" parent="1" vertex="1">
                    <mxGeometry x="870" y="560" width="40" height="40" as="geometry"/>
                </mxCell>
                <mxCell id="167" value="3" style="rounded=0;whiteSpace=wrap;html=1;" parent="1" vertex="1">
                    <mxGeometry x="950" y="560" width="40" height="40" as="geometry"/>
                </mxCell>
                <mxCell id="168" value="4" style="rounded=0;whiteSpace=wrap;html=1;" parent="1" vertex="1">
                    <mxGeometry x="1030" y="560" width="40" height="40" as="geometry"/>
                </mxCell>
                <mxCell id="169" value="5" style="rounded=0;whiteSpace=wrap;html=1;" parent="1" vertex="1">
                    <mxGeometry x="1110" y="560" width="40" height="40" as="geometry"/>
                </mxCell>
                <mxCell id="170" value="6" style="rounded=0;whiteSpace=wrap;html=1;" parent="1" vertex="1">
                    <mxGeometry x="1190" y="560" width="40" height="40" as="geometry"/>
                </mxCell>
                <mxCell id="171" value="7" style="rounded=0;whiteSpace=wrap;html=1;" parent="1" vertex="1">
                    <mxGeometry x="1270" y="560" width="40" height="40" as="geometry"/>
                </mxCell>
                <mxCell id="172" value="8" style="rounded=0;whiteSpace=wrap;html=1;" parent="1" vertex="1">
                    <mxGeometry x="1350" y="560" width="40" height="40" as="geometry"/>
                </mxCell>
                <mxCell id="173" value="9" style="rounded=0;whiteSpace=wrap;html=1;" parent="1" vertex="1">
                    <mxGeometry x="1430" y="560" width="40" height="40" as="geometry"/>
                </mxCell>
                <mxCell id="174" value="10" style="rounded=0;whiteSpace=wrap;html=1;" parent="1" vertex="1">
                    <mxGeometry x="1510" y="560" width="40" height="40" as="geometry"/>
                </mxCell>
                <mxCell id="175" value="1" style="rounded=0;whiteSpace=wrap;html=1;" parent="1" vertex="1">
                    <mxGeometry x="790" y="640" width="40" height="40" as="geometry"/>
                </mxCell>
                <mxCell id="176" value="2" style="rounded=0;whiteSpace=wrap;html=1;" parent="1" vertex="1">
                    <mxGeometry x="870" y="640" width="40" height="40" as="geometry"/>
                </mxCell>
                <mxCell id="177" value="3" style="rounded=0;whiteSpace=wrap;html=1;" parent="1" vertex="1">
                    <mxGeometry x="950" y="640" width="40" height="40" as="geometry"/>
                </mxCell>
                <mxCell id="178" value="4" style="rounded=0;whiteSpace=wrap;html=1;" parent="1" vertex="1">
                    <mxGeometry x="1030" y="640" width="40" height="40" as="geometry"/>
                </mxCell>
                <mxCell id="179" value="5" style="rounded=0;whiteSpace=wrap;html=1;" parent="1" vertex="1">
                    <mxGeometry x="1110" y="640" width="40" height="40" as="geometry"/>
                </mxCell>
                <mxCell id="180" value="6" style="rounded=0;whiteSpace=wrap;html=1;" parent="1" vertex="1">
                    <mxGeometry x="1190" y="640" width="40" height="40" as="geometry"/>
                </mxCell>
                <mxCell id="181" value="7" style="rounded=0;whiteSpace=wrap;html=1;" parent="1" vertex="1">
                    <mxGeometry x="1270" y="640" width="40" height="40" as="geometry"/>
                </mxCell>
                <mxCell id="182" value="8" style="rounded=0;whiteSpace=wrap;html=1;" parent="1" vertex="1">
                    <mxGeometry x="1350" y="640" width="40" height="40" as="geometry"/>
                </mxCell>
                <mxCell id="183" value="9" style="rounded=0;whiteSpace=wrap;html=1;" parent="1" vertex="1">
                    <mxGeometry x="1430" y="640" width="40" height="40" as="geometry"/>
                </mxCell>
                <mxCell id="184" value="10" style="rounded=0;whiteSpace=wrap;html=1;" parent="1" vertex="1">
                    <mxGeometry x="1510" y="640" width="40" height="40" as="geometry"/>
                </mxCell>
                <mxCell id="185" value="1" style="rounded=0;whiteSpace=wrap;html=1;" parent="1" vertex="1">
                    <mxGeometry x="790" y="720" width="40" height="40" as="geometry"/>
                </mxCell>
                <mxCell id="186" value="2" style="rounded=0;whiteSpace=wrap;html=1;" parent="1" vertex="1">
                    <mxGeometry x="870" y="720" width="40" height="40" as="geometry"/>
                </mxCell>
                <mxCell id="187" value="3" style="rounded=0;whiteSpace=wrap;html=1;" parent="1" vertex="1">
                    <mxGeometry x="950" y="720" width="40" height="40" as="geometry"/>
                </mxCell>
                <mxCell id="188" value="4" style="rounded=0;whiteSpace=wrap;html=1;" parent="1" vertex="1">
                    <mxGeometry x="1030" y="720" width="40" height="40" as="geometry"/>
                </mxCell>
                <mxCell id="189" value="5" style="rounded=0;whiteSpace=wrap;html=1;" parent="1" vertex="1">
                    <mxGeometry x="1110" y="720" width="40" height="40" as="geometry"/>
                </mxCell>
                <mxCell id="190" value="6" style="rounded=0;whiteSpace=wrap;html=1;" parent="1" vertex="1">
                    <mxGeometry x="1190" y="720" width="40" height="40" as="geometry"/>
                </mxCell>
                <mxCell id="191" value="7" style="rounded=0;whiteSpace=wrap;html=1;" parent="1" vertex="1">
                    <mxGeometry x="1270" y="720" width="40" height="40" as="geometry"/>
                </mxCell>
                <mxCell id="192" value="8" style="rounded=0;whiteSpace=wrap;html=1;" parent="1" vertex="1">
                    <mxGeometry x="1350" y="720" width="40" height="40" as="geometry"/>
                </mxCell>
                <mxCell id="193" value="9" style="rounded=0;whiteSpace=wrap;html=1;" parent="1" vertex="1">
                    <mxGeometry x="1430" y="720" width="40" height="40" as="geometry"/>
                </mxCell>
                <mxCell id="194" value="10" style="rounded=0;whiteSpace=wrap;html=1;" parent="1" vertex="1">
                    <mxGeometry x="1510" y="720" width="40" height="40" as="geometry"/>
                </mxCell>
                <mxCell id="195" value="1" style="rounded=0;whiteSpace=wrap;html=1;" parent="1" vertex="1">
                    <mxGeometry x="790" y="800" width="40" height="40" as="geometry"/>
                </mxCell>
                <mxCell id="196" value="2" style="rounded=0;whiteSpace=wrap;html=1;" parent="1" vertex="1">
                    <mxGeometry x="870" y="800" width="40" height="40" as="geometry"/>
                </mxCell>
                <mxCell id="197" value="3" style="rounded=0;whiteSpace=wrap;html=1;" parent="1" vertex="1">
                    <mxGeometry x="950" y="800" width="40" height="40" as="geometry"/>
                </mxCell>
                <mxCell id="198" value="4" style="rounded=0;whiteSpace=wrap;html=1;" parent="1" vertex="1">
                    <mxGeometry x="1030" y="800" width="40" height="40" as="geometry"/>
                </mxCell>
                <mxCell id="199" value="5" style="rounded=0;whiteSpace=wrap;html=1;" parent="1" vertex="1">
                    <mxGeometry x="1110" y="800" width="40" height="40" as="geometry"/>
                </mxCell>
                <mxCell id="200" value="6" style="rounded=0;whiteSpace=wrap;html=1;" parent="1" vertex="1">
                    <mxGeometry x="1190" y="800" width="40" height="40" as="geometry"/>
                </mxCell>
                <mxCell id="201" value="7" style="rounded=0;whiteSpace=wrap;html=1;" parent="1" vertex="1">
                    <mxGeometry x="1270" y="800" width="40" height="40" as="geometry"/>
                </mxCell>
                <mxCell id="202" value="8" style="rounded=0;whiteSpace=wrap;html=1;" parent="1" vertex="1">
                    <mxGeometry x="1350" y="800" width="40" height="40" as="geometry"/>
                </mxCell>
                <mxCell id="203" value="9" style="rounded=0;whiteSpace=wrap;html=1;" parent="1" vertex="1">
                    <mxGeometry x="1430" y="800" width="40" height="40" as="geometry"/>
                </mxCell>
                <mxCell id="204" value="10" style="rounded=0;whiteSpace=wrap;html=1;" parent="1" vertex="1">
                    <mxGeometry x="1510" y="800" width="40" height="40" as="geometry"/>
                </mxCell>
                <mxCell id="205" value="1" style="rounded=0;whiteSpace=wrap;html=1;" parent="1" vertex="1">
                    <mxGeometry x="790" y="900" width="40" height="40" as="geometry"/>
                </mxCell>
                <mxCell id="206" value="2" style="rounded=0;whiteSpace=wrap;html=1;" parent="1" vertex="1">
                    <mxGeometry x="870" y="900" width="40" height="40" as="geometry"/>
                </mxCell>
                <mxCell id="207" value="3" style="rounded=0;whiteSpace=wrap;html=1;" parent="1" vertex="1">
                    <mxGeometry x="950" y="900" width="40" height="40" as="geometry"/>
                </mxCell>
                <mxCell id="208" value="4" style="rounded=0;whiteSpace=wrap;html=1;" parent="1" vertex="1">
                    <mxGeometry x="1030" y="900" width="40" height="40" as="geometry"/>
                </mxCell>
                <mxCell id="209" value="5" style="rounded=0;whiteSpace=wrap;html=1;" parent="1" vertex="1">
                    <mxGeometry x="1110" y="900" width="40" height="40" as="geometry"/>
                </mxCell>
                <mxCell id="210" value="6" style="rounded=0;whiteSpace=wrap;html=1;" parent="1" vertex="1">
                    <mxGeometry x="1190" y="900" width="40" height="40" as="geometry"/>
                </mxCell>
                <mxCell id="211" value="7" style="rounded=0;whiteSpace=wrap;html=1;" parent="1" vertex="1">
                    <mxGeometry x="1270" y="900" width="40" height="40" as="geometry"/>
                </mxCell>
                <mxCell id="212" value="8" style="rounded=0;whiteSpace=wrap;html=1;" parent="1" vertex="1">
                    <mxGeometry x="1350" y="900" width="40" height="40" as="geometry"/>
                </mxCell>
                <mxCell id="213" value="9" style="rounded=0;whiteSpace=wrap;html=1;" parent="1" vertex="1">
                    <mxGeometry x="1430" y="900" width="40" height="40" as="geometry"/>
                </mxCell>
                <mxCell id="214" value="10" style="rounded=0;whiteSpace=wrap;html=1;" parent="1" vertex="1">
                    <mxGeometry x="1510" y="900" width="40" height="40" as="geometry"/>
                </mxCell>
                <mxCell id="215" value="1" style="rounded=0;whiteSpace=wrap;html=1;" parent="1" vertex="1">
                    <mxGeometry x="790" y="980" width="40" height="40" as="geometry"/>
                </mxCell>
                <mxCell id="216" value="2" style="rounded=0;whiteSpace=wrap;html=1;" parent="1" vertex="1">
                    <mxGeometry x="870" y="980" width="40" height="40" as="geometry"/>
                </mxCell>
                <mxCell id="217" value="3" style="rounded=0;whiteSpace=wrap;html=1;" parent="1" vertex="1">
                    <mxGeometry x="950" y="980" width="40" height="40" as="geometry"/>
                </mxCell>
                <mxCell id="218" value="4" style="rounded=0;whiteSpace=wrap;html=1;" parent="1" vertex="1">
                    <mxGeometry x="1030" y="980" width="40" height="40" as="geometry"/>
                </mxCell>
                <mxCell id="219" value="5" style="rounded=0;whiteSpace=wrap;html=1;" parent="1" vertex="1">
                    <mxGeometry x="1110" y="980" width="40" height="40" as="geometry"/>
                </mxCell>
                <mxCell id="220" value="6" style="rounded=0;whiteSpace=wrap;html=1;" parent="1" vertex="1">
                    <mxGeometry x="1190" y="980" width="40" height="40" as="geometry"/>
                </mxCell>
                <mxCell id="221" value="7" style="rounded=0;whiteSpace=wrap;html=1;" parent="1" vertex="1">
                    <mxGeometry x="1270" y="980" width="40" height="40" as="geometry"/>
                </mxCell>
                <mxCell id="222" value="8" style="rounded=0;whiteSpace=wrap;html=1;" parent="1" vertex="1">
                    <mxGeometry x="1350" y="980" width="40" height="40" as="geometry"/>
                </mxCell>
                <mxCell id="223" value="9" style="rounded=0;whiteSpace=wrap;html=1;" parent="1" vertex="1">
                    <mxGeometry x="1430" y="980" width="40" height="40" as="geometry"/>
                </mxCell>
                <mxCell id="224" value="10" style="rounded=0;whiteSpace=wrap;html=1;" parent="1" vertex="1">
                    <mxGeometry x="1510" y="980" width="40" height="40" as="geometry"/>
                </mxCell>
                <mxCell id="225" value="1" style="rounded=0;whiteSpace=wrap;html=1;" parent="1" vertex="1">
                    <mxGeometry x="790" y="1060" width="40" height="40" as="geometry"/>
                </mxCell>
                <mxCell id="226" value="2" style="rounded=0;whiteSpace=wrap;html=1;" parent="1" vertex="1">
                    <mxGeometry x="870" y="1060" width="40" height="40" as="geometry"/>
                </mxCell>
                <mxCell id="227" value="3" style="rounded=0;whiteSpace=wrap;html=1;" parent="1" vertex="1">
                    <mxGeometry x="950" y="1060" width="40" height="40" as="geometry"/>
                </mxCell>
                <mxCell id="228" value="4" style="rounded=0;whiteSpace=wrap;html=1;" parent="1" vertex="1">
                    <mxGeometry x="1030" y="1060" width="40" height="40" as="geometry"/>
                </mxCell>
                <mxCell id="229" value="5" style="rounded=0;whiteSpace=wrap;html=1;" parent="1" vertex="1">
                    <mxGeometry x="1110" y="1060" width="40" height="40" as="geometry"/>
                </mxCell>
                <mxCell id="230" value="6" style="rounded=0;whiteSpace=wrap;html=1;" parent="1" vertex="1">
                    <mxGeometry x="1190" y="1060" width="40" height="40" as="geometry"/>
                </mxCell>
                <mxCell id="231" value="7" style="rounded=0;whiteSpace=wrap;html=1;" parent="1" vertex="1">
                    <mxGeometry x="1270" y="1060" width="40" height="40" as="geometry"/>
                </mxCell>
                <mxCell id="232" value="8" style="rounded=0;whiteSpace=wrap;html=1;" parent="1" vertex="1">
                    <mxGeometry x="1350" y="1060" width="40" height="40" as="geometry"/>
                </mxCell>
                <mxCell id="233" value="9" style="rounded=0;whiteSpace=wrap;html=1;" parent="1" vertex="1">
                    <mxGeometry x="1430" y="1060" width="40" height="40" as="geometry"/>
                </mxCell>
                <mxCell id="234" value="10" style="rounded=0;whiteSpace=wrap;html=1;" parent="1" vertex="1">
                    <mxGeometry x="1510" y="1060" width="40" height="40" as="geometry"/>
                </mxCell>
                <mxCell id="235" value="1" style="rounded=0;whiteSpace=wrap;html=1;" parent="1" vertex="1">
                    <mxGeometry x="790" y="1140" width="40" height="40" as="geometry"/>
                </mxCell>
                <mxCell id="236" value="2" style="rounded=0;whiteSpace=wrap;html=1;" parent="1" vertex="1">
                    <mxGeometry x="870" y="1140" width="40" height="40" as="geometry"/>
                </mxCell>
                <mxCell id="237" value="3" style="rounded=0;whiteSpace=wrap;html=1;" parent="1" vertex="1">
                    <mxGeometry x="950" y="1140" width="40" height="40" as="geometry"/>
                </mxCell>
                <mxCell id="238" value="4" style="rounded=0;whiteSpace=wrap;html=1;" parent="1" vertex="1">
                    <mxGeometry x="1030" y="1140" width="40" height="40" as="geometry"/>
                </mxCell>
                <mxCell id="239" value="5" style="rounded=0;whiteSpace=wrap;html=1;" parent="1" vertex="1">
                    <mxGeometry x="1110" y="1140" width="40" height="40" as="geometry"/>
                </mxCell>
                <mxCell id="240" value="6" style="rounded=0;whiteSpace=wrap;html=1;" parent="1" vertex="1">
                    <mxGeometry x="1190" y="1140" width="40" height="40" as="geometry"/>
                </mxCell>
                <mxCell id="241" value="7" style="rounded=0;whiteSpace=wrap;html=1;" parent="1" vertex="1">
                    <mxGeometry x="1270" y="1140" width="40" height="40" as="geometry"/>
                </mxCell>
                <mxCell id="242" value="8" style="rounded=0;whiteSpace=wrap;html=1;" parent="1" vertex="1">
                    <mxGeometry x="1350" y="1140" width="40" height="40" as="geometry"/>
                </mxCell>
                <mxCell id="243" value="9" style="rounded=0;whiteSpace=wrap;html=1;" parent="1" vertex="1">
                    <mxGeometry x="1430" y="1140" width="40" height="40" as="geometry"/>
                </mxCell>
                <mxCell id="244" value="10" style="rounded=0;whiteSpace=wrap;html=1;" parent="1" vertex="1">
                    <mxGeometry x="1510" y="1140" width="40" height="40" as="geometry"/>
                </mxCell>
                <mxCell id="245" value="1" style="rounded=0;whiteSpace=wrap;html=1;" parent="1" vertex="1">
                    <mxGeometry x="790" y="1220" width="40" height="40" as="geometry"/>
                </mxCell>
                <mxCell id="246" value="2" style="rounded=0;whiteSpace=wrap;html=1;" parent="1" vertex="1">
                    <mxGeometry x="870" y="1220" width="40" height="40" as="geometry"/>
                </mxCell>
                <mxCell id="247" value="3" style="rounded=0;whiteSpace=wrap;html=1;" parent="1" vertex="1">
                    <mxGeometry x="950" y="1220" width="40" height="40" as="geometry"/>
                </mxCell>
                <mxCell id="248" value="4" style="rounded=0;whiteSpace=wrap;html=1;" parent="1" vertex="1">
                    <mxGeometry x="1030" y="1220" width="40" height="40" as="geometry"/>
                </mxCell>
                <mxCell id="249" value="5" style="rounded=0;whiteSpace=wrap;html=1;" parent="1" vertex="1">
                    <mxGeometry x="1110" y="1220" width="40" height="40" as="geometry"/>
                </mxCell>
                <mxCell id="250" value="6" style="rounded=0;whiteSpace=wrap;html=1;" parent="1" vertex="1">
                    <mxGeometry x="1190" y="1220" width="40" height="40" as="geometry"/>
                </mxCell>
                <mxCell id="251" value="7" style="rounded=0;whiteSpace=wrap;html=1;" parent="1" vertex="1">
                    <mxGeometry x="1270" y="1220" width="40" height="40" as="geometry"/>
                </mxCell>
                <mxCell id="252" value="8" style="rounded=0;whiteSpace=wrap;html=1;" parent="1" vertex="1">
                    <mxGeometry x="1350" y="1220" width="40" height="40" as="geometry"/>
                </mxCell>
                <mxCell id="253" value="9" style="rounded=0;whiteSpace=wrap;html=1;" parent="1" vertex="1">
                    <mxGeometry x="1430" y="1220" width="40" height="40" as="geometry"/>
                </mxCell>
                <mxCell id="254" value="10" style="rounded=0;whiteSpace=wrap;html=1;" parent="1" vertex="1">
                    <mxGeometry x="1510" y="1220" width="40" height="40" as="geometry"/>
                </mxCell>
                <mxCell id="255" value="1" style="rounded=0;whiteSpace=wrap;html=1;" parent="1" vertex="1">
                    <mxGeometry x="790" y="1330" width="40" height="40" as="geometry"/>
                </mxCell>
                <mxCell id="256" value="2" style="rounded=0;whiteSpace=wrap;html=1;" parent="1" vertex="1">
                    <mxGeometry x="870" y="1330" width="40" height="40" as="geometry"/>
                </mxCell>
                <mxCell id="257" value="3" style="rounded=0;whiteSpace=wrap;html=1;" parent="1" vertex="1">
                    <mxGeometry x="950" y="1330" width="40" height="40" as="geometry"/>
                </mxCell>
                <mxCell id="258" value="4" style="rounded=0;whiteSpace=wrap;html=1;" parent="1" vertex="1">
                    <mxGeometry x="1030" y="1330" width="40" height="40" as="geometry"/>
                </mxCell>
                <mxCell id="259" value="5" style="rounded=0;whiteSpace=wrap;html=1;" parent="1" vertex="1">
                    <mxGeometry x="1110" y="1330" width="40" height="40" as="geometry"/>
                </mxCell>
                <mxCell id="260" value="6" style="rounded=0;whiteSpace=wrap;html=1;" parent="1" vertex="1">
                    <mxGeometry x="1190" y="1330" width="40" height="40" as="geometry"/>
                </mxCell>
                <mxCell id="261" value="7" style="rounded=0;whiteSpace=wrap;html=1;" parent="1" vertex="1">
                    <mxGeometry x="1270" y="1330" width="40" height="40" as="geometry"/>
                </mxCell>
                <mxCell id="262" value="8" style="rounded=0;whiteSpace=wrap;html=1;" parent="1" vertex="1">
                    <mxGeometry x="1350" y="1330" width="40" height="40" as="geometry"/>
                </mxCell>
                <mxCell id="263" value="9" style="rounded=0;whiteSpace=wrap;html=1;" parent="1" vertex="1">
                    <mxGeometry x="1430" y="1330" width="40" height="40" as="geometry"/>
                </mxCell>
                <mxCell id="264" value="10" style="rounded=0;whiteSpace=wrap;html=1;" parent="1" vertex="1">
                    <mxGeometry x="1510" y="1330" width="40" height="40" as="geometry"/>
                </mxCell>
                <mxCell id="265" value="1" style="rounded=0;whiteSpace=wrap;html=1;" parent="1" vertex="1">
                    <mxGeometry x="790" y="1410" width="40" height="40" as="geometry"/>
                </mxCell>
                <mxCell id="266" value="2" style="rounded=0;whiteSpace=wrap;html=1;" parent="1" vertex="1">
                    <mxGeometry x="870" y="1410" width="40" height="40" as="geometry"/>
                </mxCell>
                <mxCell id="267" value="3" style="rounded=0;whiteSpace=wrap;html=1;" parent="1" vertex="1">
                    <mxGeometry x="950" y="1410" width="40" height="40" as="geometry"/>
                </mxCell>
                <mxCell id="268" value="4" style="rounded=0;whiteSpace=wrap;html=1;" parent="1" vertex="1">
                    <mxGeometry x="1030" y="1410" width="40" height="40" as="geometry"/>
                </mxCell>
                <mxCell id="269" value="5" style="rounded=0;whiteSpace=wrap;html=1;" parent="1" vertex="1">
                    <mxGeometry x="1110" y="1410" width="40" height="40" as="geometry"/>
                </mxCell>
                <mxCell id="270" value="6" style="rounded=0;whiteSpace=wrap;html=1;" parent="1" vertex="1">
                    <mxGeometry x="1190" y="1410" width="40" height="40" as="geometry"/>
                </mxCell>
                <mxCell id="271" value="7" style="rounded=0;whiteSpace=wrap;html=1;" parent="1" vertex="1">
                    <mxGeometry x="1270" y="1410" width="40" height="40" as="geometry"/>
                </mxCell>
                <mxCell id="272" value="8" style="rounded=0;whiteSpace=wrap;html=1;" parent="1" vertex="1">
                    <mxGeometry x="1350" y="1410" width="40" height="40" as="geometry"/>
                </mxCell>
                <mxCell id="273" value="9" style="rounded=0;whiteSpace=wrap;html=1;" parent="1" vertex="1">
                    <mxGeometry x="1430" y="1410" width="40" height="40" as="geometry"/>
                </mxCell>
                <mxCell id="274" value="10" style="rounded=0;whiteSpace=wrap;html=1;" parent="1" vertex="1">
                    <mxGeometry x="1510" y="1410" width="40" height="40" as="geometry"/>
                </mxCell>
                <mxCell id="275" value="1" style="rounded=0;whiteSpace=wrap;html=1;" parent="1" vertex="1">
                    <mxGeometry x="790" y="1490" width="40" height="40" as="geometry"/>
                </mxCell>
                <mxCell id="276" value="2" style="rounded=0;whiteSpace=wrap;html=1;" parent="1" vertex="1">
                    <mxGeometry x="870" y="1490" width="40" height="40" as="geometry"/>
                </mxCell>
                <mxCell id="277" value="3" style="rounded=0;whiteSpace=wrap;html=1;" parent="1" vertex="1">
                    <mxGeometry x="950" y="1490" width="40" height="40" as="geometry"/>
                </mxCell>
                <mxCell id="278" value="4" style="rounded=0;whiteSpace=wrap;html=1;" parent="1" vertex="1">
                    <mxGeometry x="1030" y="1490" width="40" height="40" as="geometry"/>
                </mxCell>
                <mxCell id="279" value="5" style="rounded=0;whiteSpace=wrap;html=1;" parent="1" vertex="1">
                    <mxGeometry x="1110" y="1490" width="40" height="40" as="geometry"/>
                </mxCell>
                <mxCell id="280" value="6" style="rounded=0;whiteSpace=wrap;html=1;" parent="1" vertex="1">
                    <mxGeometry x="1190" y="1490" width="40" height="40" as="geometry"/>
                </mxCell>
                <mxCell id="281" value="7" style="rounded=0;whiteSpace=wrap;html=1;" parent="1" vertex="1">
                    <mxGeometry x="1270" y="1490" width="40" height="40" as="geometry"/>
                </mxCell>
                <mxCell id="282" value="8" style="rounded=0;whiteSpace=wrap;html=1;" parent="1" vertex="1">
                    <mxGeometry x="1350" y="1490" width="40" height="40" as="geometry"/>
                </mxCell>
                <mxCell id="283" value="9" style="rounded=0;whiteSpace=wrap;html=1;" parent="1" vertex="1">
                    <mxGeometry x="1430" y="1490" width="40" height="40" as="geometry"/>
                </mxCell>
                <mxCell id="284" value="10" style="rounded=0;whiteSpace=wrap;html=1;" parent="1" vertex="1">
                    <mxGeometry x="1510" y="1490" width="40" height="40" as="geometry"/>
                </mxCell>
                <mxCell id="285" value="1" style="rounded=0;whiteSpace=wrap;html=1;" parent="1" vertex="1">
                    <mxGeometry x="790" y="1570" width="40" height="40" as="geometry"/>
                </mxCell>
                <mxCell id="286" value="2" style="rounded=0;whiteSpace=wrap;html=1;" parent="1" vertex="1">
                    <mxGeometry x="870" y="1570" width="40" height="40" as="geometry"/>
                </mxCell>
                <mxCell id="287" value="3" style="rounded=0;whiteSpace=wrap;html=1;" parent="1" vertex="1">
                    <mxGeometry x="950" y="1570" width="40" height="40" as="geometry"/>
                </mxCell>
                <mxCell id="288" value="4" style="rounded=0;whiteSpace=wrap;html=1;" parent="1" vertex="1">
                    <mxGeometry x="1030" y="1570" width="40" height="40" as="geometry"/>
                </mxCell>
                <mxCell id="289" value="5" style="rounded=0;whiteSpace=wrap;html=1;" parent="1" vertex="1">
                    <mxGeometry x="1110" y="1570" width="40" height="40" as="geometry"/>
                </mxCell>
                <mxCell id="290" value="6" style="rounded=0;whiteSpace=wrap;html=1;" parent="1" vertex="1">
                    <mxGeometry x="1190" y="1570" width="40" height="40" as="geometry"/>
                </mxCell>
                <mxCell id="291" value="7" style="rounded=0;whiteSpace=wrap;html=1;" parent="1" vertex="1">
                    <mxGeometry x="1270" y="1570" width="40" height="40" as="geometry"/>
                </mxCell>
                <mxCell id="292" value="8" style="rounded=0;whiteSpace=wrap;html=1;" parent="1" vertex="1">
                    <mxGeometry x="1350" y="1570" width="40" height="40" as="geometry"/>
                </mxCell>
                <mxCell id="293" value="9" style="rounded=0;whiteSpace=wrap;html=1;" parent="1" vertex="1">
                    <mxGeometry x="1430" y="1570" width="40" height="40" as="geometry"/>
                </mxCell>
                <mxCell id="294" value="10" style="rounded=0;whiteSpace=wrap;html=1;" parent="1" vertex="1">
                    <mxGeometry x="1510" y="1570" width="40" height="40" as="geometry"/>
                </mxCell>
                <mxCell id="295" value="1" style="rounded=0;whiteSpace=wrap;html=1;" parent="1" vertex="1">
                    <mxGeometry x="790" y="1650" width="40" height="40" as="geometry"/>
                </mxCell>
                <mxCell id="296" value="2" style="rounded=0;whiteSpace=wrap;html=1;" parent="1" vertex="1">
                    <mxGeometry x="870" y="1650" width="40" height="40" as="geometry"/>
                </mxCell>
                <mxCell id="297" value="3" style="rounded=0;whiteSpace=wrap;html=1;" parent="1" vertex="1">
                    <mxGeometry x="950" y="1650" width="40" height="40" as="geometry"/>
                </mxCell>
                <mxCell id="298" value="4" style="rounded=0;whiteSpace=wrap;html=1;" parent="1" vertex="1">
                    <mxGeometry x="1030" y="1650" width="40" height="40" as="geometry"/>
                </mxCell>
                <mxCell id="299" value="5" style="rounded=0;whiteSpace=wrap;html=1;" parent="1" vertex="1">
                    <mxGeometry x="1110" y="1650" width="40" height="40" as="geometry"/>
                </mxCell>
                <mxCell id="300" value="6" style="rounded=0;whiteSpace=wrap;html=1;" parent="1" vertex="1">
                    <mxGeometry x="1190" y="1650" width="40" height="40" as="geometry"/>
                </mxCell>
                <mxCell id="301" value="7" style="rounded=0;whiteSpace=wrap;html=1;" parent="1" vertex="1">
                    <mxGeometry x="1270" y="1650" width="40" height="40" as="geometry"/>
                </mxCell>
                <mxCell id="302" value="8" style="rounded=0;whiteSpace=wrap;html=1;" parent="1" vertex="1">
                    <mxGeometry x="1350" y="1650" width="40" height="40" as="geometry"/>
                </mxCell>
                <mxCell id="303" value="9" style="rounded=0;whiteSpace=wrap;html=1;" parent="1" vertex="1">
                    <mxGeometry x="1430" y="1650" width="40" height="40" as="geometry"/>
                </mxCell>
                <mxCell id="304" value="10" style="rounded=0;whiteSpace=wrap;html=1;" parent="1" vertex="1">
                    <mxGeometry x="1510" y="1650" width="40" height="40" as="geometry"/>
                </mxCell>
                <mxCell id="305" value="1" style="rounded=0;whiteSpace=wrap;html=1;" parent="1" vertex="1">
                    <mxGeometry x="-10" y="900" width="40" height="40" as="geometry"/>
                </mxCell>
                <mxCell id="306" value="2" style="rounded=0;whiteSpace=wrap;html=1;" parent="1" vertex="1">
                    <mxGeometry x="70" y="900" width="40" height="40" as="geometry"/>
                </mxCell>
                <mxCell id="307" value="3" style="rounded=0;whiteSpace=wrap;html=1;" parent="1" vertex="1">
                    <mxGeometry x="150" y="900" width="40" height="40" as="geometry"/>
                </mxCell>
                <mxCell id="308" value="4" style="rounded=0;whiteSpace=wrap;html=1;" parent="1" vertex="1">
                    <mxGeometry x="230" y="900" width="40" height="40" as="geometry"/>
                </mxCell>
                <mxCell id="309" value="5" style="rounded=0;whiteSpace=wrap;html=1;" parent="1" vertex="1">
                    <mxGeometry x="310" y="900" width="40" height="40" as="geometry"/>
                </mxCell>
                <mxCell id="310" value="6" style="rounded=0;whiteSpace=wrap;html=1;" parent="1" vertex="1">
                    <mxGeometry x="390" y="900" width="40" height="40" as="geometry"/>
                </mxCell>
                <mxCell id="311" value="7" style="rounded=0;whiteSpace=wrap;html=1;" parent="1" vertex="1">
                    <mxGeometry x="470" y="900" width="40" height="40" as="geometry"/>
                </mxCell>
                <mxCell id="312" value="8" style="rounded=0;whiteSpace=wrap;html=1;" parent="1" vertex="1">
                    <mxGeometry x="550" y="900" width="40" height="40" as="geometry"/>
                </mxCell>
                <mxCell id="313" value="9" style="rounded=0;whiteSpace=wrap;html=1;" parent="1" vertex="1">
                    <mxGeometry x="630" y="900" width="40" height="40" as="geometry"/>
                </mxCell>
                <mxCell id="314" value="10" style="rounded=0;whiteSpace=wrap;html=1;" parent="1" vertex="1">
                    <mxGeometry x="710" y="900" width="40" height="40" as="geometry"/>
                </mxCell>
                <mxCell id="315" value="1" style="rounded=0;whiteSpace=wrap;html=1;" parent="1" vertex="1">
                    <mxGeometry x="-10" y="980" width="40" height="40" as="geometry"/>
                </mxCell>
                <mxCell id="316" value="2" style="rounded=0;whiteSpace=wrap;html=1;" parent="1" vertex="1">
                    <mxGeometry x="70" y="980" width="40" height="40" as="geometry"/>
                </mxCell>
                <mxCell id="317" value="3" style="rounded=0;whiteSpace=wrap;html=1;" parent="1" vertex="1">
                    <mxGeometry x="150" y="980" width="40" height="40" as="geometry"/>
                </mxCell>
                <mxCell id="318" value="4" style="rounded=0;whiteSpace=wrap;html=1;" parent="1" vertex="1">
                    <mxGeometry x="230" y="980" width="40" height="40" as="geometry"/>
                </mxCell>
                <mxCell id="319" value="5" style="rounded=0;whiteSpace=wrap;html=1;" parent="1" vertex="1">
                    <mxGeometry x="310" y="980" width="40" height="40" as="geometry"/>
                </mxCell>
                <mxCell id="320" value="6" style="rounded=0;whiteSpace=wrap;html=1;" parent="1" vertex="1">
                    <mxGeometry x="390" y="980" width="40" height="40" as="geometry"/>
                </mxCell>
                <mxCell id="321" value="7" style="rounded=0;whiteSpace=wrap;html=1;" parent="1" vertex="1">
                    <mxGeometry x="470" y="980" width="40" height="40" as="geometry"/>
                </mxCell>
                <mxCell id="322" value="8" style="rounded=0;whiteSpace=wrap;html=1;" parent="1" vertex="1">
                    <mxGeometry x="550" y="980" width="40" height="40" as="geometry"/>
                </mxCell>
                <mxCell id="323" value="9" style="rounded=0;whiteSpace=wrap;html=1;" parent="1" vertex="1">
                    <mxGeometry x="630" y="980" width="40" height="40" as="geometry"/>
                </mxCell>
                <mxCell id="324" value="10" style="rounded=0;whiteSpace=wrap;html=1;" parent="1" vertex="1">
                    <mxGeometry x="710" y="980" width="40" height="40" as="geometry"/>
                </mxCell>
                <mxCell id="325" value="1" style="rounded=0;whiteSpace=wrap;html=1;" parent="1" vertex="1">
                    <mxGeometry x="-10" y="1060" width="40" height="40" as="geometry"/>
                </mxCell>
                <mxCell id="326" value="2" style="rounded=0;whiteSpace=wrap;html=1;" parent="1" vertex="1">
                    <mxGeometry x="70" y="1060" width="40" height="40" as="geometry"/>
                </mxCell>
                <mxCell id="327" value="3" style="rounded=0;whiteSpace=wrap;html=1;" parent="1" vertex="1">
                    <mxGeometry x="150" y="1060" width="40" height="40" as="geometry"/>
                </mxCell>
                <mxCell id="328" value="4" style="rounded=0;whiteSpace=wrap;html=1;" parent="1" vertex="1">
                    <mxGeometry x="230" y="1060" width="40" height="40" as="geometry"/>
                </mxCell>
                <mxCell id="329" value="5" style="rounded=0;whiteSpace=wrap;html=1;" parent="1" vertex="1">
                    <mxGeometry x="310" y="1060" width="40" height="40" as="geometry"/>
                </mxCell>
                <mxCell id="330" value="6" style="rounded=0;whiteSpace=wrap;html=1;" parent="1" vertex="1">
                    <mxGeometry x="390" y="1060" width="40" height="40" as="geometry"/>
                </mxCell>
                <mxCell id="331" value="7" style="rounded=0;whiteSpace=wrap;html=1;" parent="1" vertex="1">
                    <mxGeometry x="470" y="1060" width="40" height="40" as="geometry"/>
                </mxCell>
                <mxCell id="332" value="8" style="rounded=0;whiteSpace=wrap;html=1;" parent="1" vertex="1">
                    <mxGeometry x="550" y="1060" width="40" height="40" as="geometry"/>
                </mxCell>
                <mxCell id="333" value="9" style="rounded=0;whiteSpace=wrap;html=1;" parent="1" vertex="1">
                    <mxGeometry x="630" y="1060" width="40" height="40" as="geometry"/>
                </mxCell>
                <mxCell id="334" value="10" style="rounded=0;whiteSpace=wrap;html=1;" parent="1" vertex="1">
                    <mxGeometry x="710" y="1060" width="40" height="40" as="geometry"/>
                </mxCell>
                <mxCell id="335" value="1" style="rounded=0;whiteSpace=wrap;html=1;" parent="1" vertex="1">
                    <mxGeometry x="-10" y="1140" width="40" height="40" as="geometry"/>
                </mxCell>
                <mxCell id="336" value="2" style="rounded=0;whiteSpace=wrap;html=1;" parent="1" vertex="1">
                    <mxGeometry x="70" y="1140" width="40" height="40" as="geometry"/>
                </mxCell>
                <mxCell id="337" value="3" style="rounded=0;whiteSpace=wrap;html=1;" parent="1" vertex="1">
                    <mxGeometry x="150" y="1140" width="40" height="40" as="geometry"/>
                </mxCell>
                <mxCell id="338" value="4" style="rounded=0;whiteSpace=wrap;html=1;" parent="1" vertex="1">
                    <mxGeometry x="230" y="1140" width="40" height="40" as="geometry"/>
                </mxCell>
                <mxCell id="339" value="5" style="rounded=0;whiteSpace=wrap;html=1;" parent="1" vertex="1">
                    <mxGeometry x="310" y="1140" width="40" height="40" as="geometry"/>
                </mxCell>
                <mxCell id="340" value="6" style="rounded=0;whiteSpace=wrap;html=1;" parent="1" vertex="1">
                    <mxGeometry x="390" y="1140" width="40" height="40" as="geometry"/>
                </mxCell>
                <mxCell id="341" value="7" style="rounded=0;whiteSpace=wrap;html=1;" parent="1" vertex="1">
                    <mxGeometry x="470" y="1140" width="40" height="40" as="geometry"/>
                </mxCell>
                <mxCell id="342" value="8" style="rounded=0;whiteSpace=wrap;html=1;" parent="1" vertex="1">
                    <mxGeometry x="550" y="1140" width="40" height="40" as="geometry"/>
                </mxCell>
                <mxCell id="343" value="9" style="rounded=0;whiteSpace=wrap;html=1;" parent="1" vertex="1">
                    <mxGeometry x="630" y="1140" width="40" height="40" as="geometry"/>
                </mxCell>
                <mxCell id="344" value="10" style="rounded=0;whiteSpace=wrap;html=1;" parent="1" vertex="1">
                    <mxGeometry x="710" y="1140" width="40" height="40" as="geometry"/>
                </mxCell>
                <mxCell id="345" value="1" style="rounded=0;whiteSpace=wrap;html=1;" parent="1" vertex="1">
                    <mxGeometry x="-10" y="1220" width="40" height="40" as="geometry"/>
                </mxCell>
                <mxCell id="346" value="2" style="rounded=0;whiteSpace=wrap;html=1;" parent="1" vertex="1">
                    <mxGeometry x="70" y="1220" width="40" height="40" as="geometry"/>
                </mxCell>
                <mxCell id="347" value="3" style="rounded=0;whiteSpace=wrap;html=1;" parent="1" vertex="1">
                    <mxGeometry x="150" y="1220" width="40" height="40" as="geometry"/>
                </mxCell>
                <mxCell id="348" value="4" style="rounded=0;whiteSpace=wrap;html=1;" parent="1" vertex="1">
                    <mxGeometry x="230" y="1220" width="40" height="40" as="geometry"/>
                </mxCell>
                <mxCell id="349" value="5" style="rounded=0;whiteSpace=wrap;html=1;" parent="1" vertex="1">
                    <mxGeometry x="310" y="1220" width="40" height="40" as="geometry"/>
                </mxCell>
                <mxCell id="350" value="6" style="rounded=0;whiteSpace=wrap;html=1;" parent="1" vertex="1">
                    <mxGeometry x="390" y="1220" width="40" height="40" as="geometry"/>
                </mxCell>
                <mxCell id="351" value="7" style="rounded=0;whiteSpace=wrap;html=1;" parent="1" vertex="1">
                    <mxGeometry x="470" y="1220" width="40" height="40" as="geometry"/>
                </mxCell>
                <mxCell id="352" value="8" style="rounded=0;whiteSpace=wrap;html=1;" parent="1" vertex="1">
                    <mxGeometry x="550" y="1220" width="40" height="40" as="geometry"/>
                </mxCell>
                <mxCell id="353" value="9" style="rounded=0;whiteSpace=wrap;html=1;" parent="1" vertex="1">
                    <mxGeometry x="630" y="1220" width="40" height="40" as="geometry"/>
                </mxCell>
                <mxCell id="354" value="10" style="rounded=0;whiteSpace=wrap;html=1;" parent="1" vertex="1">
                    <mxGeometry x="710" y="1220" width="40" height="40" as="geometry"/>
                </mxCell>
                <mxCell id="355" value="1" style="rounded=0;whiteSpace=wrap;html=1;" parent="1" vertex="1">
                    <mxGeometry x="-10" y="1330" width="40" height="40" as="geometry"/>
                </mxCell>
                <mxCell id="356" value="2" style="rounded=0;whiteSpace=wrap;html=1;" parent="1" vertex="1">
                    <mxGeometry x="70" y="1330" width="40" height="40" as="geometry"/>
                </mxCell>
                <mxCell id="357" value="3" style="rounded=0;whiteSpace=wrap;html=1;" parent="1" vertex="1">
                    <mxGeometry x="150" y="1330" width="40" height="40" as="geometry"/>
                </mxCell>
                <mxCell id="358" value="4" style="rounded=0;whiteSpace=wrap;html=1;" parent="1" vertex="1">
                    <mxGeometry x="230" y="1330" width="40" height="40" as="geometry"/>
                </mxCell>
                <mxCell id="359" value="5" style="rounded=0;whiteSpace=wrap;html=1;" parent="1" vertex="1">
                    <mxGeometry x="310" y="1330" width="40" height="40" as="geometry"/>
                </mxCell>
                <mxCell id="360" value="6" style="rounded=0;whiteSpace=wrap;html=1;" parent="1" vertex="1">
                    <mxGeometry x="390" y="1330" width="40" height="40" as="geometry"/>
                </mxCell>
                <mxCell id="361" value="7" style="rounded=0;whiteSpace=wrap;html=1;" parent="1" vertex="1">
                    <mxGeometry x="470" y="1330" width="40" height="40" as="geometry"/>
                </mxCell>
                <mxCell id="362" value="8" style="rounded=0;whiteSpace=wrap;html=1;" parent="1" vertex="1">
                    <mxGeometry x="550" y="1330" width="40" height="40" as="geometry"/>
                </mxCell>
                <mxCell id="363" value="9" style="rounded=0;whiteSpace=wrap;html=1;" parent="1" vertex="1">
                    <mxGeometry x="630" y="1330" width="40" height="40" as="geometry"/>
                </mxCell>
                <mxCell id="364" value="10" style="rounded=0;whiteSpace=wrap;html=1;" parent="1" vertex="1">
                    <mxGeometry x="710" y="1330" width="40" height="40" as="geometry"/>
                </mxCell>
                <mxCell id="365" value="1" style="rounded=0;whiteSpace=wrap;html=1;" parent="1" vertex="1">
                    <mxGeometry x="-10" y="1410" width="40" height="40" as="geometry"/>
                </mxCell>
                <mxCell id="366" value="2" style="rounded=0;whiteSpace=wrap;html=1;" parent="1" vertex="1">
                    <mxGeometry x="70" y="1410" width="40" height="40" as="geometry"/>
                </mxCell>
                <mxCell id="367" value="3" style="rounded=0;whiteSpace=wrap;html=1;" parent="1" vertex="1">
                    <mxGeometry x="150" y="1410" width="40" height="40" as="geometry"/>
                </mxCell>
                <mxCell id="368" value="4" style="rounded=0;whiteSpace=wrap;html=1;" parent="1" vertex="1">
                    <mxGeometry x="230" y="1410" width="40" height="40" as="geometry"/>
                </mxCell>
                <mxCell id="369" value="5" style="rounded=0;whiteSpace=wrap;html=1;" parent="1" vertex="1">
                    <mxGeometry x="310" y="1410" width="40" height="40" as="geometry"/>
                </mxCell>
                <mxCell id="370" value="6" style="rounded=0;whiteSpace=wrap;html=1;" parent="1" vertex="1">
                    <mxGeometry x="390" y="1410" width="40" height="40" as="geometry"/>
                </mxCell>
                <mxCell id="371" value="7" style="rounded=0;whiteSpace=wrap;html=1;" parent="1" vertex="1">
                    <mxGeometry x="470" y="1410" width="40" height="40" as="geometry"/>
                </mxCell>
                <mxCell id="372" value="8" style="rounded=0;whiteSpace=wrap;html=1;" parent="1" vertex="1">
                    <mxGeometry x="550" y="1410" width="40" height="40" as="geometry"/>
                </mxCell>
                <mxCell id="373" value="9" style="rounded=0;whiteSpace=wrap;html=1;" parent="1" vertex="1">
                    <mxGeometry x="630" y="1410" width="40" height="40" as="geometry"/>
                </mxCell>
                <mxCell id="374" value="10" style="rounded=0;whiteSpace=wrap;html=1;" parent="1" vertex="1">
                    <mxGeometry x="710" y="1410" width="40" height="40" as="geometry"/>
                </mxCell>
                <mxCell id="375" value="1" style="rounded=0;whiteSpace=wrap;html=1;" parent="1" vertex="1">
                    <mxGeometry x="-10" y="1490" width="40" height="40" as="geometry"/>
                </mxCell>
                <mxCell id="376" value="2" style="rounded=0;whiteSpace=wrap;html=1;" parent="1" vertex="1">
                    <mxGeometry x="70" y="1490" width="40" height="40" as="geometry"/>
                </mxCell>
                <mxCell id="377" value="3" style="rounded=0;whiteSpace=wrap;html=1;" parent="1" vertex="1">
                    <mxGeometry x="150" y="1490" width="40" height="40" as="geometry"/>
                </mxCell>
                <mxCell id="378" value="4" style="rounded=0;whiteSpace=wrap;html=1;" parent="1" vertex="1">
                    <mxGeometry x="230" y="1490" width="40" height="40" as="geometry"/>
                </mxCell>
                <mxCell id="379" value="5" style="rounded=0;whiteSpace=wrap;html=1;" parent="1" vertex="1">
                    <mxGeometry x="310" y="1490" width="40" height="40" as="geometry"/>
                </mxCell>
                <mxCell id="380" value="6" style="rounded=0;whiteSpace=wrap;html=1;" parent="1" vertex="1">
                    <mxGeometry x="390" y="1490" width="40" height="40" as="geometry"/>
                </mxCell>
                <mxCell id="381" value="7" style="rounded=0;whiteSpace=wrap;html=1;" parent="1" vertex="1">
                    <mxGeometry x="470" y="1490" width="40" height="40" as="geometry"/>
                </mxCell>
                <mxCell id="382" value="8" style="rounded=0;whiteSpace=wrap;html=1;" parent="1" vertex="1">
                    <mxGeometry x="550" y="1490" width="40" height="40" as="geometry"/>
                </mxCell>
                <mxCell id="383" value="9" style="rounded=0;whiteSpace=wrap;html=1;" parent="1" vertex="1">
                    <mxGeometry x="630" y="1490" width="40" height="40" as="geometry"/>
                </mxCell>
                <mxCell id="384" value="10" style="rounded=0;whiteSpace=wrap;html=1;" parent="1" vertex="1">
                    <mxGeometry x="710" y="1490" width="40" height="40" as="geometry"/>
                </mxCell>
                <mxCell id="385" value="1" style="rounded=0;whiteSpace=wrap;html=1;" parent="1" vertex="1">
                    <mxGeometry x="-10" y="1570" width="40" height="40" as="geometry"/>
                </mxCell>
                <mxCell id="386" value="2" style="rounded=0;whiteSpace=wrap;html=1;" parent="1" vertex="1">
                    <mxGeometry x="70" y="1570" width="40" height="40" as="geometry"/>
                </mxCell>
                <mxCell id="387" value="3" style="rounded=0;whiteSpace=wrap;html=1;" parent="1" vertex="1">
                    <mxGeometry x="150" y="1570" width="40" height="40" as="geometry"/>
                </mxCell>
                <mxCell id="388" value="4" style="rounded=0;whiteSpace=wrap;html=1;" parent="1" vertex="1">
                    <mxGeometry x="230" y="1570" width="40" height="40" as="geometry"/>
                </mxCell>
                <mxCell id="389" value="5" style="rounded=0;whiteSpace=wrap;html=1;" parent="1" vertex="1">
                    <mxGeometry x="310" y="1570" width="40" height="40" as="geometry"/>
                </mxCell>
                <mxCell id="390" value="6" style="rounded=0;whiteSpace=wrap;html=1;" parent="1" vertex="1">
                    <mxGeometry x="390" y="1570" width="40" height="40" as="geometry"/>
                </mxCell>
                <mxCell id="391" value="7" style="rounded=0;whiteSpace=wrap;html=1;" parent="1" vertex="1">
                    <mxGeometry x="470" y="1570" width="40" height="40" as="geometry"/>
                </mxCell>
                <mxCell id="392" value="8" style="rounded=0;whiteSpace=wrap;html=1;" parent="1" vertex="1">
                    <mxGeometry x="550" y="1570" width="40" height="40" as="geometry"/>
                </mxCell>
                <mxCell id="393" value="9" style="rounded=0;whiteSpace=wrap;html=1;" parent="1" vertex="1">
                    <mxGeometry x="630" y="1570" width="40" height="40" as="geometry"/>
                </mxCell>
                <mxCell id="394" value="10" style="rounded=0;whiteSpace=wrap;html=1;" parent="1" vertex="1">
                    <mxGeometry x="710" y="1570" width="40" height="40" as="geometry"/>
                </mxCell>
                <mxCell id="395" value="1" style="rounded=0;whiteSpace=wrap;html=1;" parent="1" vertex="1">
                    <mxGeometry x="-10" y="1650" width="40" height="40" as="geometry"/>
                </mxCell>
                <mxCell id="396" value="2" style="rounded=0;whiteSpace=wrap;html=1;" parent="1" vertex="1">
                    <mxGeometry x="70" y="1650" width="40" height="40" as="geometry"/>
                </mxCell>
                <mxCell id="397" value="3" style="rounded=0;whiteSpace=wrap;html=1;" parent="1" vertex="1">
                    <mxGeometry x="150" y="1650" width="40" height="40" as="geometry"/>
                </mxCell>
                <mxCell id="398" value="4" style="rounded=0;whiteSpace=wrap;html=1;" parent="1" vertex="1">
                    <mxGeometry x="230" y="1650" width="40" height="40" as="geometry"/>
                </mxCell>
                <mxCell id="399" value="5" style="rounded=0;whiteSpace=wrap;html=1;" parent="1" vertex="1">
                    <mxGeometry x="310" y="1650" width="40" height="40" as="geometry"/>
                </mxCell>
                <mxCell id="400" value="6" style="rounded=0;whiteSpace=wrap;html=1;" parent="1" vertex="1">
                    <mxGeometry x="390" y="1650" width="40" height="40" as="geometry"/>
                </mxCell>
                <mxCell id="401" value="7" style="rounded=0;whiteSpace=wrap;html=1;" parent="1" vertex="1">
                    <mxGeometry x="470" y="1650" width="40" height="40" as="geometry"/>
                </mxCell>
                <mxCell id="402" value="8" style="rounded=0;whiteSpace=wrap;html=1;" parent="1" vertex="1">
                    <mxGeometry x="550" y="1650" width="40" height="40" as="geometry"/>
                </mxCell>
                <mxCell id="403" value="9" style="rounded=0;whiteSpace=wrap;html=1;" parent="1" vertex="1">
                    <mxGeometry x="630" y="1650" width="40" height="40" as="geometry"/>
                </mxCell>
                <mxCell id="404" value="10" style="rounded=0;whiteSpace=wrap;html=1;" parent="1" vertex="1">
                    <mxGeometry x="710" y="1650" width="40" height="40" as="geometry"/>
                </mxCell>
                <mxCell id="405" value="1" style="rounded=0;whiteSpace=wrap;html=1;" parent="1" vertex="1">
                    <mxGeometry x="1590" y="49" width="40" height="39" as="geometry"/>
                </mxCell>
                <mxCell id="406" value="2" style="rounded=0;whiteSpace=wrap;html=1;" parent="1" vertex="1">
                    <mxGeometry x="1670" y="49" width="40" height="39" as="geometry"/>
                </mxCell>
                <mxCell id="407" value="3" style="rounded=0;whiteSpace=wrap;html=1;" parent="1" vertex="1">
                    <mxGeometry x="1750" y="49" width="40" height="39" as="geometry"/>
                </mxCell>
                <mxCell id="408" value="4" style="rounded=0;whiteSpace=wrap;html=1;" parent="1" vertex="1">
                    <mxGeometry x="1830" y="49" width="40" height="39" as="geometry"/>
                </mxCell>
                <mxCell id="409" value="5" style="rounded=0;whiteSpace=wrap;html=1;" parent="1" vertex="1">
                    <mxGeometry x="1910" y="49" width="40" height="39" as="geometry"/>
                </mxCell>
                <mxCell id="410" value="6" style="rounded=0;whiteSpace=wrap;html=1;" parent="1" vertex="1">
                    <mxGeometry x="1990" y="49" width="40" height="39" as="geometry"/>
                </mxCell>
                <mxCell id="411" value="7" style="rounded=0;whiteSpace=wrap;html=1;" parent="1" vertex="1">
                    <mxGeometry x="2070" y="49" width="40" height="39" as="geometry"/>
                </mxCell>
                <mxCell id="412" value="8" style="rounded=0;whiteSpace=wrap;html=1;" parent="1" vertex="1">
                    <mxGeometry x="2150" y="49" width="40" height="39" as="geometry"/>
                </mxCell>
                <mxCell id="413" value="9" style="rounded=0;whiteSpace=wrap;html=1;" parent="1" vertex="1">
                    <mxGeometry x="2230" y="49" width="40" height="39" as="geometry"/>
                </mxCell>
                <mxCell id="414" value="10" style="rounded=0;whiteSpace=wrap;html=1;" parent="1" vertex="1">
                    <mxGeometry x="2310" y="49" width="40" height="39" as="geometry"/>
                </mxCell>
                <mxCell id="415" value="1" style="rounded=0;whiteSpace=wrap;html=1;" parent="1" vertex="1">
                    <mxGeometry x="1590" y="129" width="40" height="39" as="geometry"/>
                </mxCell>
                <mxCell id="416" value="2" style="rounded=0;whiteSpace=wrap;html=1;" parent="1" vertex="1">
                    <mxGeometry x="1670" y="129" width="40" height="39" as="geometry"/>
                </mxCell>
                <mxCell id="417" value="3" style="rounded=0;whiteSpace=wrap;html=1;" parent="1" vertex="1">
                    <mxGeometry x="1750" y="129" width="40" height="39" as="geometry"/>
                </mxCell>
                <mxCell id="418" value="4" style="rounded=0;whiteSpace=wrap;html=1;" parent="1" vertex="1">
                    <mxGeometry x="1830" y="129" width="40" height="39" as="geometry"/>
                </mxCell>
                <mxCell id="419" value="5" style="rounded=0;whiteSpace=wrap;html=1;" parent="1" vertex="1">
                    <mxGeometry x="1910" y="129" width="40" height="39" as="geometry"/>
                </mxCell>
                <mxCell id="420" value="6" style="rounded=0;whiteSpace=wrap;html=1;" parent="1" vertex="1">
                    <mxGeometry x="1990" y="129" width="40" height="39" as="geometry"/>
                </mxCell>
                <mxCell id="421" value="7" style="rounded=0;whiteSpace=wrap;html=1;" parent="1" vertex="1">
                    <mxGeometry x="2070" y="129" width="40" height="39" as="geometry"/>
                </mxCell>
                <mxCell id="422" value="8" style="rounded=0;whiteSpace=wrap;html=1;" parent="1" vertex="1">
                    <mxGeometry x="2150" y="129" width="40" height="39" as="geometry"/>
                </mxCell>
                <mxCell id="423" value="9" style="rounded=0;whiteSpace=wrap;html=1;" parent="1" vertex="1">
                    <mxGeometry x="2230" y="129" width="40" height="39" as="geometry"/>
                </mxCell>
                <mxCell id="424" value="10" style="rounded=0;whiteSpace=wrap;html=1;" parent="1" vertex="1">
                    <mxGeometry x="2310" y="129" width="40" height="39" as="geometry"/>
                </mxCell>
                <mxCell id="425" value="1" style="rounded=0;whiteSpace=wrap;html=1;" parent="1" vertex="1">
                    <mxGeometry x="1590" y="209" width="40" height="39" as="geometry"/>
                </mxCell>
                <mxCell id="426" value="2" style="rounded=0;whiteSpace=wrap;html=1;" parent="1" vertex="1">
                    <mxGeometry x="1670" y="209" width="40" height="39" as="geometry"/>
                </mxCell>
                <mxCell id="427" value="3" style="rounded=0;whiteSpace=wrap;html=1;" parent="1" vertex="1">
                    <mxGeometry x="1750" y="209" width="40" height="39" as="geometry"/>
                </mxCell>
                <mxCell id="428" value="4" style="rounded=0;whiteSpace=wrap;html=1;" parent="1" vertex="1">
                    <mxGeometry x="1830" y="209" width="40" height="39" as="geometry"/>
                </mxCell>
                <mxCell id="429" value="5" style="rounded=0;whiteSpace=wrap;html=1;" parent="1" vertex="1">
                    <mxGeometry x="1910" y="209" width="40" height="39" as="geometry"/>
                </mxCell>
                <mxCell id="430" value="6" style="rounded=0;whiteSpace=wrap;html=1;" parent="1" vertex="1">
                    <mxGeometry x="1990" y="209" width="40" height="39" as="geometry"/>
                </mxCell>
                <mxCell id="431" value="7" style="rounded=0;whiteSpace=wrap;html=1;" parent="1" vertex="1">
                    <mxGeometry x="2070" y="209" width="40" height="39" as="geometry"/>
                </mxCell>
                <mxCell id="432" value="8" style="rounded=0;whiteSpace=wrap;html=1;" parent="1" vertex="1">
                    <mxGeometry x="2150" y="209" width="40" height="39" as="geometry"/>
                </mxCell>
                <mxCell id="433" value="9" style="rounded=0;whiteSpace=wrap;html=1;" parent="1" vertex="1">
                    <mxGeometry x="2230" y="209" width="40" height="39" as="geometry"/>
                </mxCell>
                <mxCell id="434" value="10" style="rounded=0;whiteSpace=wrap;html=1;" parent="1" vertex="1">
                    <mxGeometry x="2310" y="209" width="40" height="39" as="geometry"/>
                </mxCell>
                <mxCell id="435" value="1" style="rounded=0;whiteSpace=wrap;html=1;" parent="1" vertex="1">
                    <mxGeometry x="1590" y="289" width="40" height="39" as="geometry"/>
                </mxCell>
                <mxCell id="436" value="2" style="rounded=0;whiteSpace=wrap;html=1;" parent="1" vertex="1">
                    <mxGeometry x="1670" y="289" width="40" height="39" as="geometry"/>
                </mxCell>
                <mxCell id="437" value="3" style="rounded=0;whiteSpace=wrap;html=1;" parent="1" vertex="1">
                    <mxGeometry x="1750" y="289" width="40" height="39" as="geometry"/>
                </mxCell>
                <mxCell id="438" value="4" style="rounded=0;whiteSpace=wrap;html=1;" parent="1" vertex="1">
                    <mxGeometry x="1830" y="289" width="40" height="39" as="geometry"/>
                </mxCell>
                <mxCell id="439" value="5" style="rounded=0;whiteSpace=wrap;html=1;" parent="1" vertex="1">
                    <mxGeometry x="1910" y="289" width="40" height="39" as="geometry"/>
                </mxCell>
                <mxCell id="440" value="6" style="rounded=0;whiteSpace=wrap;html=1;" parent="1" vertex="1">
                    <mxGeometry x="1990" y="289" width="40" height="39" as="geometry"/>
                </mxCell>
                <mxCell id="441" value="7" style="rounded=0;whiteSpace=wrap;html=1;" parent="1" vertex="1">
                    <mxGeometry x="2070" y="289" width="40" height="39" as="geometry"/>
                </mxCell>
                <mxCell id="442" value="8" style="rounded=0;whiteSpace=wrap;html=1;" parent="1" vertex="1">
                    <mxGeometry x="2150" y="289" width="40" height="39" as="geometry"/>
                </mxCell>
                <mxCell id="443" value="9" style="rounded=0;whiteSpace=wrap;html=1;" parent="1" vertex="1">
                    <mxGeometry x="2230" y="289" width="40" height="39" as="geometry"/>
                </mxCell>
                <mxCell id="444" value="10" style="rounded=0;whiteSpace=wrap;html=1;" parent="1" vertex="1">
                    <mxGeometry x="2310" y="289" width="40" height="39" as="geometry"/>
                </mxCell>
                <mxCell id="445" value="1" style="rounded=0;whiteSpace=wrap;html=1;" parent="1" vertex="1">
                    <mxGeometry x="1590" y="369" width="40" height="39" as="geometry"/>
                </mxCell>
                <mxCell id="446" value="2" style="rounded=0;whiteSpace=wrap;html=1;" parent="1" vertex="1">
                    <mxGeometry x="1670" y="369" width="40" height="39" as="geometry"/>
                </mxCell>
                <mxCell id="447" value="3" style="rounded=0;whiteSpace=wrap;html=1;" parent="1" vertex="1">
                    <mxGeometry x="1750" y="369" width="40" height="39" as="geometry"/>
                </mxCell>
                <mxCell id="448" value="4" style="rounded=0;whiteSpace=wrap;html=1;" parent="1" vertex="1">
                    <mxGeometry x="1830" y="369" width="40" height="39" as="geometry"/>
                </mxCell>
                <mxCell id="449" value="5" style="rounded=0;whiteSpace=wrap;html=1;" parent="1" vertex="1">
                    <mxGeometry x="1910" y="369" width="40" height="39" as="geometry"/>
                </mxCell>
                <mxCell id="450" value="6" style="rounded=0;whiteSpace=wrap;html=1;" parent="1" vertex="1">
                    <mxGeometry x="1990" y="369" width="40" height="39" as="geometry"/>
                </mxCell>
                <mxCell id="451" value="7" style="rounded=0;whiteSpace=wrap;html=1;" parent="1" vertex="1">
                    <mxGeometry x="2070" y="369" width="40" height="39" as="geometry"/>
                </mxCell>
                <mxCell id="452" value="8" style="rounded=0;whiteSpace=wrap;html=1;" parent="1" vertex="1">
                    <mxGeometry x="2150" y="369" width="40" height="39" as="geometry"/>
                </mxCell>
                <mxCell id="453" value="9" style="rounded=0;whiteSpace=wrap;html=1;" parent="1" vertex="1">
                    <mxGeometry x="2230" y="369" width="40" height="39" as="geometry"/>
                </mxCell>
                <mxCell id="454" value="10" style="rounded=0;whiteSpace=wrap;html=1;" parent="1" vertex="1">
                    <mxGeometry x="2310" y="369" width="40" height="39" as="geometry"/>
                </mxCell>
                <mxCell id="455" value="1" style="rounded=0;whiteSpace=wrap;html=1;" parent="1" vertex="1">
                    <mxGeometry x="1590" y="480" width="40" height="40" as="geometry"/>
                </mxCell>
                <mxCell id="456" value="2" style="rounded=0;whiteSpace=wrap;html=1;" parent="1" vertex="1">
                    <mxGeometry x="1670" y="480" width="40" height="40" as="geometry"/>
                </mxCell>
                <mxCell id="457" value="3" style="rounded=0;whiteSpace=wrap;html=1;" parent="1" vertex="1">
                    <mxGeometry x="1750" y="480" width="40" height="40" as="geometry"/>
                </mxCell>
                <mxCell id="458" value="4" style="rounded=0;whiteSpace=wrap;html=1;" parent="1" vertex="1">
                    <mxGeometry x="1830" y="480" width="40" height="40" as="geometry"/>
                </mxCell>
                <mxCell id="459" value="5" style="rounded=0;whiteSpace=wrap;html=1;" parent="1" vertex="1">
                    <mxGeometry x="1910" y="480" width="40" height="40" as="geometry"/>
                </mxCell>
                <mxCell id="460" value="6" style="rounded=0;whiteSpace=wrap;html=1;" parent="1" vertex="1">
                    <mxGeometry x="1990" y="480" width="40" height="40" as="geometry"/>
                </mxCell>
                <mxCell id="461" value="7" style="rounded=0;whiteSpace=wrap;html=1;" parent="1" vertex="1">
                    <mxGeometry x="2070" y="480" width="40" height="40" as="geometry"/>
                </mxCell>
                <mxCell id="462" value="8" style="rounded=0;whiteSpace=wrap;html=1;" parent="1" vertex="1">
                    <mxGeometry x="2150" y="480" width="40" height="40" as="geometry"/>
                </mxCell>
                <mxCell id="463" value="9" style="rounded=0;whiteSpace=wrap;html=1;" parent="1" vertex="1">
                    <mxGeometry x="2230" y="480" width="40" height="40" as="geometry"/>
                </mxCell>
                <mxCell id="464" value="10" style="rounded=0;whiteSpace=wrap;html=1;" parent="1" vertex="1">
                    <mxGeometry x="2310" y="480" width="40" height="40" as="geometry"/>
                </mxCell>
                <mxCell id="465" value="1" style="rounded=0;whiteSpace=wrap;html=1;" parent="1" vertex="1">
                    <mxGeometry x="1590" y="560" width="40" height="40" as="geometry"/>
                </mxCell>
                <mxCell id="466" value="2" style="rounded=0;whiteSpace=wrap;html=1;" parent="1" vertex="1">
                    <mxGeometry x="1670" y="560" width="40" height="40" as="geometry"/>
                </mxCell>
                <mxCell id="467" value="3" style="rounded=0;whiteSpace=wrap;html=1;" parent="1" vertex="1">
                    <mxGeometry x="1750" y="560" width="40" height="40" as="geometry"/>
                </mxCell>
                <mxCell id="468" value="4" style="rounded=0;whiteSpace=wrap;html=1;" parent="1" vertex="1">
                    <mxGeometry x="1830" y="560" width="40" height="40" as="geometry"/>
                </mxCell>
                <mxCell id="469" value="5" style="rounded=0;whiteSpace=wrap;html=1;" parent="1" vertex="1">
                    <mxGeometry x="1910" y="560" width="40" height="40" as="geometry"/>
                </mxCell>
                <mxCell id="470" value="6" style="rounded=0;whiteSpace=wrap;html=1;" parent="1" vertex="1">
                    <mxGeometry x="1990" y="560" width="40" height="40" as="geometry"/>
                </mxCell>
                <mxCell id="471" value="7" style="rounded=0;whiteSpace=wrap;html=1;" parent="1" vertex="1">
                    <mxGeometry x="2070" y="560" width="40" height="40" as="geometry"/>
                </mxCell>
                <mxCell id="472" value="8" style="rounded=0;whiteSpace=wrap;html=1;" parent="1" vertex="1">
                    <mxGeometry x="2150" y="560" width="40" height="40" as="geometry"/>
                </mxCell>
                <mxCell id="473" value="9" style="rounded=0;whiteSpace=wrap;html=1;" parent="1" vertex="1">
                    <mxGeometry x="2230" y="560" width="40" height="40" as="geometry"/>
                </mxCell>
                <mxCell id="474" value="10" style="rounded=0;whiteSpace=wrap;html=1;" parent="1" vertex="1">
                    <mxGeometry x="2310" y="560" width="40" height="40" as="geometry"/>
                </mxCell>
                <mxCell id="475" value="1" style="rounded=0;whiteSpace=wrap;html=1;" parent="1" vertex="1">
                    <mxGeometry x="1590" y="640" width="40" height="40" as="geometry"/>
                </mxCell>
                <mxCell id="476" value="2" style="rounded=0;whiteSpace=wrap;html=1;" parent="1" vertex="1">
                    <mxGeometry x="1670" y="640" width="40" height="40" as="geometry"/>
                </mxCell>
                <mxCell id="477" value="3" style="rounded=0;whiteSpace=wrap;html=1;" parent="1" vertex="1">
                    <mxGeometry x="1750" y="640" width="40" height="40" as="geometry"/>
                </mxCell>
                <mxCell id="478" value="4" style="rounded=0;whiteSpace=wrap;html=1;" parent="1" vertex="1">
                    <mxGeometry x="1830" y="640" width="40" height="40" as="geometry"/>
                </mxCell>
                <mxCell id="479" value="5" style="rounded=0;whiteSpace=wrap;html=1;" parent="1" vertex="1">
                    <mxGeometry x="1910" y="640" width="40" height="40" as="geometry"/>
                </mxCell>
                <mxCell id="480" value="6" style="rounded=0;whiteSpace=wrap;html=1;" parent="1" vertex="1">
                    <mxGeometry x="1990" y="640" width="40" height="40" as="geometry"/>
                </mxCell>
                <mxCell id="481" value="7" style="rounded=0;whiteSpace=wrap;html=1;" parent="1" vertex="1">
                    <mxGeometry x="2070" y="640" width="40" height="40" as="geometry"/>
                </mxCell>
                <mxCell id="482" value="8" style="rounded=0;whiteSpace=wrap;html=1;" parent="1" vertex="1">
                    <mxGeometry x="2150" y="640" width="40" height="40" as="geometry"/>
                </mxCell>
                <mxCell id="483" value="9" style="rounded=0;whiteSpace=wrap;html=1;" parent="1" vertex="1">
                    <mxGeometry x="2230" y="640" width="40" height="40" as="geometry"/>
                </mxCell>
                <mxCell id="484" value="10" style="rounded=0;whiteSpace=wrap;html=1;" parent="1" vertex="1">
                    <mxGeometry x="2310" y="640" width="40" height="40" as="geometry"/>
                </mxCell>
                <mxCell id="485" value="1" style="rounded=0;whiteSpace=wrap;html=1;" parent="1" vertex="1">
                    <mxGeometry x="1590" y="720" width="40" height="40" as="geometry"/>
                </mxCell>
                <mxCell id="486" value="2" style="rounded=0;whiteSpace=wrap;html=1;" parent="1" vertex="1">
                    <mxGeometry x="1670" y="720" width="40" height="40" as="geometry"/>
                </mxCell>
                <mxCell id="487" value="3" style="rounded=0;whiteSpace=wrap;html=1;" parent="1" vertex="1">
                    <mxGeometry x="1750" y="720" width="40" height="40" as="geometry"/>
                </mxCell>
                <mxCell id="488" value="4" style="rounded=0;whiteSpace=wrap;html=1;" parent="1" vertex="1">
                    <mxGeometry x="1830" y="720" width="40" height="40" as="geometry"/>
                </mxCell>
                <mxCell id="489" value="5" style="rounded=0;whiteSpace=wrap;html=1;" parent="1" vertex="1">
                    <mxGeometry x="1910" y="720" width="40" height="40" as="geometry"/>
                </mxCell>
                <mxCell id="490" value="6" style="rounded=0;whiteSpace=wrap;html=1;" parent="1" vertex="1">
                    <mxGeometry x="1990" y="720" width="40" height="40" as="geometry"/>
                </mxCell>
                <mxCell id="491" value="7" style="rounded=0;whiteSpace=wrap;html=1;" parent="1" vertex="1">
                    <mxGeometry x="2070" y="720" width="40" height="40" as="geometry"/>
                </mxCell>
                <mxCell id="492" value="8" style="rounded=0;whiteSpace=wrap;html=1;" parent="1" vertex="1">
                    <mxGeometry x="2150" y="720" width="40" height="40" as="geometry"/>
                </mxCell>
                <mxCell id="493" value="9" style="rounded=0;whiteSpace=wrap;html=1;" parent="1" vertex="1">
                    <mxGeometry x="2230" y="720" width="40" height="40" as="geometry"/>
                </mxCell>
                <mxCell id="494" value="10" style="rounded=0;whiteSpace=wrap;html=1;" parent="1" vertex="1">
                    <mxGeometry x="2310" y="720" width="40" height="40" as="geometry"/>
                </mxCell>
                <mxCell id="495" value="1" style="rounded=0;whiteSpace=wrap;html=1;" parent="1" vertex="1">
                    <mxGeometry x="1590" y="800" width="40" height="40" as="geometry"/>
                </mxCell>
                <mxCell id="496" value="2" style="rounded=0;whiteSpace=wrap;html=1;" parent="1" vertex="1">
                    <mxGeometry x="1670" y="800" width="40" height="40" as="geometry"/>
                </mxCell>
                <mxCell id="497" value="3" style="rounded=0;whiteSpace=wrap;html=1;" parent="1" vertex="1">
                    <mxGeometry x="1750" y="800" width="40" height="40" as="geometry"/>
                </mxCell>
                <mxCell id="498" value="4" style="rounded=0;whiteSpace=wrap;html=1;" parent="1" vertex="1">
                    <mxGeometry x="1830" y="800" width="40" height="40" as="geometry"/>
                </mxCell>
                <mxCell id="499" value="5" style="rounded=0;whiteSpace=wrap;html=1;" parent="1" vertex="1">
                    <mxGeometry x="1910" y="800" width="40" height="40" as="geometry"/>
                </mxCell>
                <mxCell id="500" value="6" style="rounded=0;whiteSpace=wrap;html=1;" parent="1" vertex="1">
                    <mxGeometry x="1990" y="800" width="40" height="40" as="geometry"/>
                </mxCell>
                <mxCell id="501" value="7" style="rounded=0;whiteSpace=wrap;html=1;" parent="1" vertex="1">
                    <mxGeometry x="2070" y="800" width="40" height="40" as="geometry"/>
                </mxCell>
                <mxCell id="502" value="8" style="rounded=0;whiteSpace=wrap;html=1;" parent="1" vertex="1">
                    <mxGeometry x="2150" y="800" width="40" height="40" as="geometry"/>
                </mxCell>
                <mxCell id="503" value="9" style="rounded=0;whiteSpace=wrap;html=1;" parent="1" vertex="1">
                    <mxGeometry x="2230" y="800" width="40" height="40" as="geometry"/>
                </mxCell>
                <mxCell id="504" value="10" style="rounded=0;whiteSpace=wrap;html=1;" parent="1" vertex="1">
                    <mxGeometry x="2310" y="800" width="40" height="40" as="geometry"/>
                </mxCell>
                <mxCell id="505" value="1" style="rounded=0;whiteSpace=wrap;html=1;" parent="1" vertex="1">
                    <mxGeometry x="2390" y="49" width="40" height="39" as="geometry"/>
                </mxCell>
                <mxCell id="506" value="2" style="rounded=0;whiteSpace=wrap;html=1;" parent="1" vertex="1">
                    <mxGeometry x="2470" y="49" width="40" height="39" as="geometry"/>
                </mxCell>
                <mxCell id="507" value="3" style="rounded=0;whiteSpace=wrap;html=1;" parent="1" vertex="1">
                    <mxGeometry x="2550" y="49" width="40" height="39" as="geometry"/>
                </mxCell>
                <mxCell id="508" value="4" style="rounded=0;whiteSpace=wrap;html=1;" parent="1" vertex="1">
                    <mxGeometry x="2630" y="49" width="40" height="39" as="geometry"/>
                </mxCell>
                <mxCell id="509" value="5" style="rounded=0;whiteSpace=wrap;html=1;" parent="1" vertex="1">
                    <mxGeometry x="2710" y="49" width="40" height="39" as="geometry"/>
                </mxCell>
                <mxCell id="510" value="6" style="rounded=0;whiteSpace=wrap;html=1;" parent="1" vertex="1">
                    <mxGeometry x="2790" y="49" width="40" height="39" as="geometry"/>
                </mxCell>
                <mxCell id="511" value="7" style="rounded=0;whiteSpace=wrap;html=1;" parent="1" vertex="1">
                    <mxGeometry x="2870" y="49" width="40" height="39" as="geometry"/>
                </mxCell>
                <mxCell id="512" value="8" style="rounded=0;whiteSpace=wrap;html=1;" parent="1" vertex="1">
                    <mxGeometry x="2950" y="49" width="40" height="39" as="geometry"/>
                </mxCell>
                <mxCell id="513" value="9" style="rounded=0;whiteSpace=wrap;html=1;" parent="1" vertex="1">
                    <mxGeometry x="3030" y="49" width="40" height="39" as="geometry"/>
                </mxCell>
                <mxCell id="514" value="10" style="rounded=0;whiteSpace=wrap;html=1;" parent="1" vertex="1">
                    <mxGeometry x="3110" y="49" width="40" height="39" as="geometry"/>
                </mxCell>
                <mxCell id="515" value="1" style="rounded=0;whiteSpace=wrap;html=1;" parent="1" vertex="1">
                    <mxGeometry x="2390" y="129" width="40" height="39" as="geometry"/>
                </mxCell>
                <mxCell id="516" value="2" style="rounded=0;whiteSpace=wrap;html=1;" parent="1" vertex="1">
                    <mxGeometry x="2470" y="129" width="40" height="39" as="geometry"/>
                </mxCell>
                <mxCell id="517" value="3" style="rounded=0;whiteSpace=wrap;html=1;" parent="1" vertex="1">
                    <mxGeometry x="2550" y="129" width="40" height="39" as="geometry"/>
                </mxCell>
                <mxCell id="518" value="4" style="rounded=0;whiteSpace=wrap;html=1;" parent="1" vertex="1">
                    <mxGeometry x="2630" y="129" width="40" height="39" as="geometry"/>
                </mxCell>
                <mxCell id="519" value="5" style="rounded=0;whiteSpace=wrap;html=1;" parent="1" vertex="1">
                    <mxGeometry x="2710" y="129" width="40" height="39" as="geometry"/>
                </mxCell>
                <mxCell id="520" value="6" style="rounded=0;whiteSpace=wrap;html=1;" parent="1" vertex="1">
                    <mxGeometry x="2790" y="129" width="40" height="39" as="geometry"/>
                </mxCell>
                <mxCell id="521" value="7" style="rounded=0;whiteSpace=wrap;html=1;" parent="1" vertex="1">
                    <mxGeometry x="2870" y="129" width="40" height="39" as="geometry"/>
                </mxCell>
                <mxCell id="522" value="8" style="rounded=0;whiteSpace=wrap;html=1;" parent="1" vertex="1">
                    <mxGeometry x="2950" y="129" width="40" height="39" as="geometry"/>
                </mxCell>
                <mxCell id="523" value="9" style="rounded=0;whiteSpace=wrap;html=1;" parent="1" vertex="1">
                    <mxGeometry x="3030" y="129" width="40" height="39" as="geometry"/>
                </mxCell>
                <mxCell id="524" value="10" style="rounded=0;whiteSpace=wrap;html=1;" parent="1" vertex="1">
                    <mxGeometry x="3110" y="129" width="40" height="39" as="geometry"/>
                </mxCell>
                <mxCell id="525" value="1" style="rounded=0;whiteSpace=wrap;html=1;" parent="1" vertex="1">
                    <mxGeometry x="2390" y="209" width="40" height="39" as="geometry"/>
                </mxCell>
                <mxCell id="526" value="2" style="rounded=0;whiteSpace=wrap;html=1;" parent="1" vertex="1">
                    <mxGeometry x="2470" y="209" width="40" height="39" as="geometry"/>
                </mxCell>
                <mxCell id="527" value="3" style="rounded=0;whiteSpace=wrap;html=1;" parent="1" vertex="1">
                    <mxGeometry x="2550" y="209" width="40" height="39" as="geometry"/>
                </mxCell>
                <mxCell id="528" value="4" style="rounded=0;whiteSpace=wrap;html=1;" parent="1" vertex="1">
                    <mxGeometry x="2630" y="209" width="40" height="39" as="geometry"/>
                </mxCell>
                <mxCell id="529" value="5" style="rounded=0;whiteSpace=wrap;html=1;" parent="1" vertex="1">
                    <mxGeometry x="2710" y="209" width="40" height="39" as="geometry"/>
                </mxCell>
                <mxCell id="530" value="6" style="rounded=0;whiteSpace=wrap;html=1;" parent="1" vertex="1">
                    <mxGeometry x="2790" y="209" width="40" height="39" as="geometry"/>
                </mxCell>
                <mxCell id="531" value="7" style="rounded=0;whiteSpace=wrap;html=1;" parent="1" vertex="1">
                    <mxGeometry x="2870" y="209" width="40" height="39" as="geometry"/>
                </mxCell>
                <mxCell id="532" value="8" style="rounded=0;whiteSpace=wrap;html=1;" parent="1" vertex="1">
                    <mxGeometry x="2950" y="209" width="40" height="39" as="geometry"/>
                </mxCell>
                <mxCell id="533" value="9" style="rounded=0;whiteSpace=wrap;html=1;" parent="1" vertex="1">
                    <mxGeometry x="3030" y="209" width="40" height="39" as="geometry"/>
                </mxCell>
                <mxCell id="534" value="10" style="rounded=0;whiteSpace=wrap;html=1;" parent="1" vertex="1">
                    <mxGeometry x="3110" y="209" width="40" height="39" as="geometry"/>
                </mxCell>
                <mxCell id="535" value="1" style="rounded=0;whiteSpace=wrap;html=1;" parent="1" vertex="1">
                    <mxGeometry x="2390" y="289" width="40" height="39" as="geometry"/>
                </mxCell>
                <mxCell id="536" value="2" style="rounded=0;whiteSpace=wrap;html=1;" parent="1" vertex="1">
                    <mxGeometry x="2470" y="289" width="40" height="39" as="geometry"/>
                </mxCell>
                <mxCell id="537" value="3" style="rounded=0;whiteSpace=wrap;html=1;" parent="1" vertex="1">
                    <mxGeometry x="2550" y="289" width="40" height="39" as="geometry"/>
                </mxCell>
                <mxCell id="538" value="4" style="rounded=0;whiteSpace=wrap;html=1;" parent="1" vertex="1">
                    <mxGeometry x="2630" y="289" width="40" height="39" as="geometry"/>
                </mxCell>
                <mxCell id="539" value="5" style="rounded=0;whiteSpace=wrap;html=1;" parent="1" vertex="1">
                    <mxGeometry x="2710" y="289" width="40" height="39" as="geometry"/>
                </mxCell>
                <mxCell id="540" value="6" style="rounded=0;whiteSpace=wrap;html=1;" parent="1" vertex="1">
                    <mxGeometry x="2790" y="289" width="40" height="39" as="geometry"/>
                </mxCell>
                <mxCell id="541" value="7" style="rounded=0;whiteSpace=wrap;html=1;" parent="1" vertex="1">
                    <mxGeometry x="2870" y="289" width="40" height="39" as="geometry"/>
                </mxCell>
                <mxCell id="542" value="8" style="rounded=0;whiteSpace=wrap;html=1;" parent="1" vertex="1">
                    <mxGeometry x="2950" y="289" width="40" height="39" as="geometry"/>
                </mxCell>
                <mxCell id="543" value="9" style="rounded=0;whiteSpace=wrap;html=1;" parent="1" vertex="1">
                    <mxGeometry x="3030" y="289" width="40" height="39" as="geometry"/>
                </mxCell>
                <mxCell id="544" value="10" style="rounded=0;whiteSpace=wrap;html=1;" parent="1" vertex="1">
                    <mxGeometry x="3110" y="289" width="40" height="39" as="geometry"/>
                </mxCell>
                <mxCell id="545" value="1" style="rounded=0;whiteSpace=wrap;html=1;" parent="1" vertex="1">
                    <mxGeometry x="2390" y="369" width="40" height="39" as="geometry"/>
                </mxCell>
                <mxCell id="546" value="2" style="rounded=0;whiteSpace=wrap;html=1;" parent="1" vertex="1">
                    <mxGeometry x="2470" y="369" width="40" height="39" as="geometry"/>
                </mxCell>
                <mxCell id="547" value="3" style="rounded=0;whiteSpace=wrap;html=1;" parent="1" vertex="1">
                    <mxGeometry x="2550" y="369" width="40" height="39" as="geometry"/>
                </mxCell>
                <mxCell id="548" value="4" style="rounded=0;whiteSpace=wrap;html=1;" parent="1" vertex="1">
                    <mxGeometry x="2630" y="369" width="40" height="39" as="geometry"/>
                </mxCell>
                <mxCell id="549" value="5" style="rounded=0;whiteSpace=wrap;html=1;" parent="1" vertex="1">
                    <mxGeometry x="2710" y="369" width="40" height="39" as="geometry"/>
                </mxCell>
                <mxCell id="550" value="6" style="rounded=0;whiteSpace=wrap;html=1;" parent="1" vertex="1">
                    <mxGeometry x="2790" y="369" width="40" height="39" as="geometry"/>
                </mxCell>
                <mxCell id="551" value="7" style="rounded=0;whiteSpace=wrap;html=1;" parent="1" vertex="1">
                    <mxGeometry x="2870" y="369" width="40" height="39" as="geometry"/>
                </mxCell>
                <mxCell id="552" value="8" style="rounded=0;whiteSpace=wrap;html=1;" parent="1" vertex="1">
                    <mxGeometry x="2950" y="369" width="40" height="39" as="geometry"/>
                </mxCell>
                <mxCell id="553" value="9" style="rounded=0;whiteSpace=wrap;html=1;" parent="1" vertex="1">
                    <mxGeometry x="3030" y="369" width="40" height="39" as="geometry"/>
                </mxCell>
                <mxCell id="554" value="10" style="rounded=0;whiteSpace=wrap;html=1;" parent="1" vertex="1">
                    <mxGeometry x="3110" y="369" width="40" height="39" as="geometry"/>
                </mxCell>
                <mxCell id="555" value="1" style="rounded=0;whiteSpace=wrap;html=1;" parent="1" vertex="1">
                    <mxGeometry x="2390" y="480" width="40" height="40" as="geometry"/>
                </mxCell>
                <mxCell id="556" value="2" style="rounded=0;whiteSpace=wrap;html=1;" parent="1" vertex="1">
                    <mxGeometry x="2470" y="480" width="40" height="40" as="geometry"/>
                </mxCell>
                <mxCell id="557" value="3" style="rounded=0;whiteSpace=wrap;html=1;" parent="1" vertex="1">
                    <mxGeometry x="2550" y="480" width="40" height="40" as="geometry"/>
                </mxCell>
                <mxCell id="558" value="4" style="rounded=0;whiteSpace=wrap;html=1;" parent="1" vertex="1">
                    <mxGeometry x="2630" y="480" width="40" height="40" as="geometry"/>
                </mxCell>
                <mxCell id="559" value="5" style="rounded=0;whiteSpace=wrap;html=1;" parent="1" vertex="1">
                    <mxGeometry x="2710" y="480" width="40" height="40" as="geometry"/>
                </mxCell>
                <mxCell id="560" value="6" style="rounded=0;whiteSpace=wrap;html=1;" parent="1" vertex="1">
                    <mxGeometry x="2790" y="480" width="40" height="40" as="geometry"/>
                </mxCell>
                <mxCell id="561" value="7" style="rounded=0;whiteSpace=wrap;html=1;" parent="1" vertex="1">
                    <mxGeometry x="2870" y="480" width="40" height="40" as="geometry"/>
                </mxCell>
                <mxCell id="562" value="8" style="rounded=0;whiteSpace=wrap;html=1;" parent="1" vertex="1">
                    <mxGeometry x="2950" y="480" width="40" height="40" as="geometry"/>
                </mxCell>
                <mxCell id="563" value="9" style="rounded=0;whiteSpace=wrap;html=1;" parent="1" vertex="1">
                    <mxGeometry x="3030" y="480" width="40" height="40" as="geometry"/>
                </mxCell>
                <mxCell id="564" value="10" style="rounded=0;whiteSpace=wrap;html=1;" parent="1" vertex="1">
                    <mxGeometry x="3110" y="480" width="40" height="40" as="geometry"/>
                </mxCell>
                <mxCell id="565" value="1" style="rounded=0;whiteSpace=wrap;html=1;" parent="1" vertex="1">
                    <mxGeometry x="2390" y="560" width="40" height="40" as="geometry"/>
                </mxCell>
                <mxCell id="566" value="2" style="rounded=0;whiteSpace=wrap;html=1;" parent="1" vertex="1">
                    <mxGeometry x="2470" y="560" width="40" height="40" as="geometry"/>
                </mxCell>
                <mxCell id="567" value="3" style="rounded=0;whiteSpace=wrap;html=1;" parent="1" vertex="1">
                    <mxGeometry x="2550" y="560" width="40" height="40" as="geometry"/>
                </mxCell>
                <mxCell id="568" value="4" style="rounded=0;whiteSpace=wrap;html=1;" parent="1" vertex="1">
                    <mxGeometry x="2630" y="560" width="40" height="40" as="geometry"/>
                </mxCell>
                <mxCell id="569" value="5" style="rounded=0;whiteSpace=wrap;html=1;" parent="1" vertex="1">
                    <mxGeometry x="2710" y="560" width="40" height="40" as="geometry"/>
                </mxCell>
                <mxCell id="570" value="6" style="rounded=0;whiteSpace=wrap;html=1;" parent="1" vertex="1">
                    <mxGeometry x="2790" y="560" width="40" height="40" as="geometry"/>
                </mxCell>
                <mxCell id="571" value="7" style="rounded=0;whiteSpace=wrap;html=1;" parent="1" vertex="1">
                    <mxGeometry x="2870" y="560" width="40" height="40" as="geometry"/>
                </mxCell>
                <mxCell id="572" value="8" style="rounded=0;whiteSpace=wrap;html=1;" parent="1" vertex="1">
                    <mxGeometry x="2950" y="560" width="40" height="40" as="geometry"/>
                </mxCell>
                <mxCell id="573" value="9" style="rounded=0;whiteSpace=wrap;html=1;" parent="1" vertex="1">
                    <mxGeometry x="3030" y="560" width="40" height="40" as="geometry"/>
                </mxCell>
                <mxCell id="574" value="10" style="rounded=0;whiteSpace=wrap;html=1;" parent="1" vertex="1">
                    <mxGeometry x="3110" y="560" width="40" height="40" as="geometry"/>
                </mxCell>
                <mxCell id="575" value="1" style="rounded=0;whiteSpace=wrap;html=1;" parent="1" vertex="1">
                    <mxGeometry x="2390" y="640" width="40" height="40" as="geometry"/>
                </mxCell>
                <mxCell id="576" value="2" style="rounded=0;whiteSpace=wrap;html=1;" parent="1" vertex="1">
                    <mxGeometry x="2470" y="640" width="40" height="40" as="geometry"/>
                </mxCell>
                <mxCell id="577" value="3" style="rounded=0;whiteSpace=wrap;html=1;" parent="1" vertex="1">
                    <mxGeometry x="2550" y="640" width="40" height="40" as="geometry"/>
                </mxCell>
                <mxCell id="578" value="4" style="rounded=0;whiteSpace=wrap;html=1;" parent="1" vertex="1">
                    <mxGeometry x="2630" y="640" width="40" height="40" as="geometry"/>
                </mxCell>
                <mxCell id="579" value="5" style="rounded=0;whiteSpace=wrap;html=1;" parent="1" vertex="1">
                    <mxGeometry x="2710" y="640" width="40" height="40" as="geometry"/>
                </mxCell>
                <mxCell id="580" value="6" style="rounded=0;whiteSpace=wrap;html=1;" parent="1" vertex="1">
                    <mxGeometry x="2790" y="640" width="40" height="40" as="geometry"/>
                </mxCell>
                <mxCell id="581" value="7" style="rounded=0;whiteSpace=wrap;html=1;" parent="1" vertex="1">
                    <mxGeometry x="2870" y="640" width="40" height="40" as="geometry"/>
                </mxCell>
                <mxCell id="582" value="8" style="rounded=0;whiteSpace=wrap;html=1;" parent="1" vertex="1">
                    <mxGeometry x="2950" y="640" width="40" height="40" as="geometry"/>
                </mxCell>
                <mxCell id="583" value="9" style="rounded=0;whiteSpace=wrap;html=1;" parent="1" vertex="1">
                    <mxGeometry x="3030" y="640" width="40" height="40" as="geometry"/>
                </mxCell>
                <mxCell id="584" value="10" style="rounded=0;whiteSpace=wrap;html=1;" parent="1" vertex="1">
                    <mxGeometry x="3110" y="640" width="40" height="40" as="geometry"/>
                </mxCell>
                <mxCell id="585" value="1" style="rounded=0;whiteSpace=wrap;html=1;" parent="1" vertex="1">
                    <mxGeometry x="2390" y="720" width="40" height="40" as="geometry"/>
                </mxCell>
                <mxCell id="586" value="2" style="rounded=0;whiteSpace=wrap;html=1;" parent="1" vertex="1">
                    <mxGeometry x="2470" y="720" width="40" height="40" as="geometry"/>
                </mxCell>
                <mxCell id="587" value="3" style="rounded=0;whiteSpace=wrap;html=1;" parent="1" vertex="1">
                    <mxGeometry x="2550" y="720" width="40" height="40" as="geometry"/>
                </mxCell>
                <mxCell id="588" value="4" style="rounded=0;whiteSpace=wrap;html=1;" parent="1" vertex="1">
                    <mxGeometry x="2630" y="720" width="40" height="40" as="geometry"/>
                </mxCell>
                <mxCell id="589" value="5" style="rounded=0;whiteSpace=wrap;html=1;" parent="1" vertex="1">
                    <mxGeometry x="2710" y="720" width="40" height="40" as="geometry"/>
                </mxCell>
                <mxCell id="590" value="6" style="rounded=0;whiteSpace=wrap;html=1;" parent="1" vertex="1">
                    <mxGeometry x="2790" y="720" width="40" height="40" as="geometry"/>
                </mxCell>
                <mxCell id="591" value="7" style="rounded=0;whiteSpace=wrap;html=1;" parent="1" vertex="1">
                    <mxGeometry x="2870" y="720" width="40" height="40" as="geometry"/>
                </mxCell>
                <mxCell id="592" value="8" style="rounded=0;whiteSpace=wrap;html=1;" parent="1" vertex="1">
                    <mxGeometry x="2950" y="720" width="40" height="40" as="geometry"/>
                </mxCell>
                <mxCell id="593" value="9" style="rounded=0;whiteSpace=wrap;html=1;" parent="1" vertex="1">
                    <mxGeometry x="3030" y="720" width="40" height="40" as="geometry"/>
                </mxCell>
                <mxCell id="594" value="10" style="rounded=0;whiteSpace=wrap;html=1;" parent="1" vertex="1">
                    <mxGeometry x="3110" y="720" width="40" height="40" as="geometry"/>
                </mxCell>
                <mxCell id="595" value="1" style="rounded=0;whiteSpace=wrap;html=1;" parent="1" vertex="1">
                    <mxGeometry x="2390" y="800" width="40" height="40" as="geometry"/>
                </mxCell>
                <mxCell id="596" value="2" style="rounded=0;whiteSpace=wrap;html=1;" parent="1" vertex="1">
                    <mxGeometry x="2470" y="800" width="40" height="40" as="geometry"/>
                </mxCell>
                <mxCell id="597" value="3" style="rounded=0;whiteSpace=wrap;html=1;" parent="1" vertex="1">
                    <mxGeometry x="2550" y="800" width="40" height="40" as="geometry"/>
                </mxCell>
                <mxCell id="598" value="4" style="rounded=0;whiteSpace=wrap;html=1;" parent="1" vertex="1">
                    <mxGeometry x="2630" y="800" width="40" height="40" as="geometry"/>
                </mxCell>
                <mxCell id="599" value="5" style="rounded=0;whiteSpace=wrap;html=1;" parent="1" vertex="1">
                    <mxGeometry x="2710" y="800" width="40" height="40" as="geometry"/>
                </mxCell>
                <mxCell id="600" value="6" style="rounded=0;whiteSpace=wrap;html=1;" parent="1" vertex="1">
                    <mxGeometry x="2790" y="800" width="40" height="40" as="geometry"/>
                </mxCell>
                <mxCell id="601" value="7" style="rounded=0;whiteSpace=wrap;html=1;" parent="1" vertex="1">
                    <mxGeometry x="2870" y="800" width="40" height="40" as="geometry"/>
                </mxCell>
                <mxCell id="602" value="8" style="rounded=0;whiteSpace=wrap;html=1;" parent="1" vertex="1">
                    <mxGeometry x="2950" y="800" width="40" height="40" as="geometry"/>
                </mxCell>
                <mxCell id="603" value="9" style="rounded=0;whiteSpace=wrap;html=1;" parent="1" vertex="1">
                    <mxGeometry x="3030" y="800" width="40" height="40" as="geometry"/>
                </mxCell>
                <mxCell id="604" value="10" style="rounded=0;whiteSpace=wrap;html=1;" parent="1" vertex="1">
                    <mxGeometry x="3110" y="800" width="40" height="40" as="geometry"/>
                </mxCell>
                <mxCell id="605" value="1" style="rounded=0;whiteSpace=wrap;html=1;" parent="1" vertex="1">
                    <mxGeometry x="2390" y="900" width="40" height="40" as="geometry"/>
                </mxCell>
                <mxCell id="606" value="2" style="rounded=0;whiteSpace=wrap;html=1;" parent="1" vertex="1">
                    <mxGeometry x="2470" y="900" width="40" height="40" as="geometry"/>
                </mxCell>
                <mxCell id="607" value="3" style="rounded=0;whiteSpace=wrap;html=1;" parent="1" vertex="1">
                    <mxGeometry x="2550" y="900" width="40" height="40" as="geometry"/>
                </mxCell>
                <mxCell id="608" value="4" style="rounded=0;whiteSpace=wrap;html=1;" parent="1" vertex="1">
                    <mxGeometry x="2630" y="900" width="40" height="40" as="geometry"/>
                </mxCell>
                <mxCell id="609" value="5" style="rounded=0;whiteSpace=wrap;html=1;" parent="1" vertex="1">
                    <mxGeometry x="2710" y="900" width="40" height="40" as="geometry"/>
                </mxCell>
                <mxCell id="610" value="6" style="rounded=0;whiteSpace=wrap;html=1;" parent="1" vertex="1">
                    <mxGeometry x="2790" y="900" width="40" height="40" as="geometry"/>
                </mxCell>
                <mxCell id="611" value="7" style="rounded=0;whiteSpace=wrap;html=1;" parent="1" vertex="1">
                    <mxGeometry x="2870" y="900" width="40" height="40" as="geometry"/>
                </mxCell>
                <mxCell id="612" value="8" style="rounded=0;whiteSpace=wrap;html=1;" parent="1" vertex="1">
                    <mxGeometry x="2950" y="900" width="40" height="40" as="geometry"/>
                </mxCell>
                <mxCell id="613" value="9" style="rounded=0;whiteSpace=wrap;html=1;" parent="1" vertex="1">
                    <mxGeometry x="3030" y="900" width="40" height="40" as="geometry"/>
                </mxCell>
                <mxCell id="614" value="10" style="rounded=0;whiteSpace=wrap;html=1;" parent="1" vertex="1">
                    <mxGeometry x="3110" y="900" width="40" height="40" as="geometry"/>
                </mxCell>
                <mxCell id="615" value="1" style="rounded=0;whiteSpace=wrap;html=1;" parent="1" vertex="1">
                    <mxGeometry x="2390" y="980" width="40" height="40" as="geometry"/>
                </mxCell>
                <mxCell id="616" value="2" style="rounded=0;whiteSpace=wrap;html=1;" parent="1" vertex="1">
                    <mxGeometry x="2470" y="980" width="40" height="40" as="geometry"/>
                </mxCell>
                <mxCell id="617" value="3" style="rounded=0;whiteSpace=wrap;html=1;" parent="1" vertex="1">
                    <mxGeometry x="2550" y="980" width="40" height="40" as="geometry"/>
                </mxCell>
                <mxCell id="618" value="4" style="rounded=0;whiteSpace=wrap;html=1;" parent="1" vertex="1">
                    <mxGeometry x="2630" y="980" width="40" height="40" as="geometry"/>
                </mxCell>
                <mxCell id="619" value="5" style="rounded=0;whiteSpace=wrap;html=1;" parent="1" vertex="1">
                    <mxGeometry x="2710" y="980" width="40" height="40" as="geometry"/>
                </mxCell>
                <mxCell id="620" value="6" style="rounded=0;whiteSpace=wrap;html=1;" parent="1" vertex="1">
                    <mxGeometry x="2790" y="980" width="40" height="40" as="geometry"/>
                </mxCell>
                <mxCell id="621" value="7" style="rounded=0;whiteSpace=wrap;html=1;" parent="1" vertex="1">
                    <mxGeometry x="2870" y="980" width="40" height="40" as="geometry"/>
                </mxCell>
                <mxCell id="622" value="8" style="rounded=0;whiteSpace=wrap;html=1;" parent="1" vertex="1">
                    <mxGeometry x="2950" y="980" width="40" height="40" as="geometry"/>
                </mxCell>
                <mxCell id="623" value="9" style="rounded=0;whiteSpace=wrap;html=1;" parent="1" vertex="1">
                    <mxGeometry x="3030" y="980" width="40" height="40" as="geometry"/>
                </mxCell>
                <mxCell id="624" value="10" style="rounded=0;whiteSpace=wrap;html=1;" parent="1" vertex="1">
                    <mxGeometry x="3110" y="980" width="40" height="40" as="geometry"/>
                </mxCell>
                <mxCell id="625" value="1" style="rounded=0;whiteSpace=wrap;html=1;" parent="1" vertex="1">
                    <mxGeometry x="2390" y="1060" width="40" height="40" as="geometry"/>
                </mxCell>
                <mxCell id="626" value="2" style="rounded=0;whiteSpace=wrap;html=1;" parent="1" vertex="1">
                    <mxGeometry x="2470" y="1060" width="40" height="40" as="geometry"/>
                </mxCell>
                <mxCell id="627" value="3" style="rounded=0;whiteSpace=wrap;html=1;" parent="1" vertex="1">
                    <mxGeometry x="2550" y="1060" width="40" height="40" as="geometry"/>
                </mxCell>
                <mxCell id="628" value="4" style="rounded=0;whiteSpace=wrap;html=1;" parent="1" vertex="1">
                    <mxGeometry x="2630" y="1060" width="40" height="40" as="geometry"/>
                </mxCell>
                <mxCell id="629" value="5" style="rounded=0;whiteSpace=wrap;html=1;" parent="1" vertex="1">
                    <mxGeometry x="2710" y="1060" width="40" height="40" as="geometry"/>
                </mxCell>
                <mxCell id="630" value="6" style="rounded=0;whiteSpace=wrap;html=1;" parent="1" vertex="1">
                    <mxGeometry x="2790" y="1060" width="40" height="40" as="geometry"/>
                </mxCell>
                <mxCell id="631" value="7" style="rounded=0;whiteSpace=wrap;html=1;" parent="1" vertex="1">
                    <mxGeometry x="2870" y="1060" width="40" height="40" as="geometry"/>
                </mxCell>
                <mxCell id="632" value="8" style="rounded=0;whiteSpace=wrap;html=1;" parent="1" vertex="1">
                    <mxGeometry x="2950" y="1060" width="40" height="40" as="geometry"/>
                </mxCell>
                <mxCell id="633" value="9" style="rounded=0;whiteSpace=wrap;html=1;" parent="1" vertex="1">
                    <mxGeometry x="3030" y="1060" width="40" height="40" as="geometry"/>
                </mxCell>
                <mxCell id="634" value="10" style="rounded=0;whiteSpace=wrap;html=1;" parent="1" vertex="1">
                    <mxGeometry x="3110" y="1060" width="40" height="40" as="geometry"/>
                </mxCell>
                <mxCell id="635" value="1" style="rounded=0;whiteSpace=wrap;html=1;" parent="1" vertex="1">
                    <mxGeometry x="2390" y="1140" width="40" height="40" as="geometry"/>
                </mxCell>
                <mxCell id="636" value="2" style="rounded=0;whiteSpace=wrap;html=1;" parent="1" vertex="1">
                    <mxGeometry x="2470" y="1140" width="40" height="40" as="geometry"/>
                </mxCell>
                <mxCell id="637" value="3" style="rounded=0;whiteSpace=wrap;html=1;" parent="1" vertex="1">
                    <mxGeometry x="2550" y="1140" width="40" height="40" as="geometry"/>
                </mxCell>
                <mxCell id="638" value="4" style="rounded=0;whiteSpace=wrap;html=1;" parent="1" vertex="1">
                    <mxGeometry x="2630" y="1140" width="40" height="40" as="geometry"/>
                </mxCell>
                <mxCell id="639" value="5" style="rounded=0;whiteSpace=wrap;html=1;" parent="1" vertex="1">
                    <mxGeometry x="2710" y="1140" width="40" height="40" as="geometry"/>
                </mxCell>
                <mxCell id="640" value="6" style="rounded=0;whiteSpace=wrap;html=1;" parent="1" vertex="1">
                    <mxGeometry x="2790" y="1140" width="40" height="40" as="geometry"/>
                </mxCell>
                <mxCell id="641" value="7" style="rounded=0;whiteSpace=wrap;html=1;" parent="1" vertex="1">
                    <mxGeometry x="2870" y="1140" width="40" height="40" as="geometry"/>
                </mxCell>
                <mxCell id="642" value="8" style="rounded=0;whiteSpace=wrap;html=1;" parent="1" vertex="1">
                    <mxGeometry x="2950" y="1140" width="40" height="40" as="geometry"/>
                </mxCell>
                <mxCell id="643" value="9" style="rounded=0;whiteSpace=wrap;html=1;" parent="1" vertex="1">
                    <mxGeometry x="3030" y="1140" width="40" height="40" as="geometry"/>
                </mxCell>
                <mxCell id="644" value="10" style="rounded=0;whiteSpace=wrap;html=1;" parent="1" vertex="1">
                    <mxGeometry x="3110" y="1140" width="40" height="40" as="geometry"/>
                </mxCell>
                <mxCell id="645" value="1" style="rounded=0;whiteSpace=wrap;html=1;" parent="1" vertex="1">
                    <mxGeometry x="2390" y="1220" width="40" height="40" as="geometry"/>
                </mxCell>
                <mxCell id="646" value="2" style="rounded=0;whiteSpace=wrap;html=1;" parent="1" vertex="1">
                    <mxGeometry x="2470" y="1220" width="40" height="40" as="geometry"/>
                </mxCell>
                <mxCell id="647" value="3" style="rounded=0;whiteSpace=wrap;html=1;" parent="1" vertex="1">
                    <mxGeometry x="2550" y="1220" width="40" height="40" as="geometry"/>
                </mxCell>
                <mxCell id="648" value="4" style="rounded=0;whiteSpace=wrap;html=1;" parent="1" vertex="1">
                    <mxGeometry x="2630" y="1220" width="40" height="40" as="geometry"/>
                </mxCell>
                <mxCell id="649" value="5" style="rounded=0;whiteSpace=wrap;html=1;" parent="1" vertex="1">
                    <mxGeometry x="2710" y="1220" width="40" height="40" as="geometry"/>
                </mxCell>
                <mxCell id="650" value="6" style="rounded=0;whiteSpace=wrap;html=1;" parent="1" vertex="1">
                    <mxGeometry x="2790" y="1220" width="40" height="40" as="geometry"/>
                </mxCell>
                <mxCell id="651" value="7" style="rounded=0;whiteSpace=wrap;html=1;" parent="1" vertex="1">
                    <mxGeometry x="2870" y="1220" width="40" height="40" as="geometry"/>
                </mxCell>
                <mxCell id="652" value="8" style="rounded=0;whiteSpace=wrap;html=1;" parent="1" vertex="1">
                    <mxGeometry x="2950" y="1220" width="40" height="40" as="geometry"/>
                </mxCell>
                <mxCell id="653" value="9" style="rounded=0;whiteSpace=wrap;html=1;" parent="1" vertex="1">
                    <mxGeometry x="3030" y="1220" width="40" height="40" as="geometry"/>
                </mxCell>
                <mxCell id="654" value="10" style="rounded=0;whiteSpace=wrap;html=1;" parent="1" vertex="1">
                    <mxGeometry x="3110" y="1220" width="40" height="40" as="geometry"/>
                </mxCell>
                <mxCell id="655" value="1" style="rounded=0;whiteSpace=wrap;html=1;" parent="1" vertex="1">
                    <mxGeometry x="2390" y="1330" width="40" height="40" as="geometry"/>
                </mxCell>
                <mxCell id="656" value="2" style="rounded=0;whiteSpace=wrap;html=1;" parent="1" vertex="1">
                    <mxGeometry x="2470" y="1330" width="40" height="40" as="geometry"/>
                </mxCell>
                <mxCell id="657" value="3" style="rounded=0;whiteSpace=wrap;html=1;" parent="1" vertex="1">
                    <mxGeometry x="2550" y="1330" width="40" height="40" as="geometry"/>
                </mxCell>
                <mxCell id="658" value="4" style="rounded=0;whiteSpace=wrap;html=1;" parent="1" vertex="1">
                    <mxGeometry x="2630" y="1330" width="40" height="40" as="geometry"/>
                </mxCell>
                <mxCell id="659" value="5" style="rounded=0;whiteSpace=wrap;html=1;" parent="1" vertex="1">
                    <mxGeometry x="2710" y="1330" width="40" height="40" as="geometry"/>
                </mxCell>
                <mxCell id="660" value="6" style="rounded=0;whiteSpace=wrap;html=1;" parent="1" vertex="1">
                    <mxGeometry x="2790" y="1330" width="40" height="40" as="geometry"/>
                </mxCell>
                <mxCell id="661" value="7" style="rounded=0;whiteSpace=wrap;html=1;" parent="1" vertex="1">
                    <mxGeometry x="2870" y="1330" width="40" height="40" as="geometry"/>
                </mxCell>
                <mxCell id="662" value="8" style="rounded=0;whiteSpace=wrap;html=1;" parent="1" vertex="1">
                    <mxGeometry x="2950" y="1330" width="40" height="40" as="geometry"/>
                </mxCell>
                <mxCell id="663" value="9" style="rounded=0;whiteSpace=wrap;html=1;" parent="1" vertex="1">
                    <mxGeometry x="3030" y="1330" width="40" height="40" as="geometry"/>
                </mxCell>
                <mxCell id="664" value="10" style="rounded=0;whiteSpace=wrap;html=1;" parent="1" vertex="1">
                    <mxGeometry x="3110" y="1330" width="40" height="40" as="geometry"/>
                </mxCell>
                <mxCell id="665" value="1" style="rounded=0;whiteSpace=wrap;html=1;" parent="1" vertex="1">
                    <mxGeometry x="2390" y="1410" width="40" height="40" as="geometry"/>
                </mxCell>
                <mxCell id="666" value="2" style="rounded=0;whiteSpace=wrap;html=1;" parent="1" vertex="1">
                    <mxGeometry x="2470" y="1410" width="40" height="40" as="geometry"/>
                </mxCell>
                <mxCell id="667" value="3" style="rounded=0;whiteSpace=wrap;html=1;" parent="1" vertex="1">
                    <mxGeometry x="2550" y="1410" width="40" height="40" as="geometry"/>
                </mxCell>
                <mxCell id="668" value="4" style="rounded=0;whiteSpace=wrap;html=1;" parent="1" vertex="1">
                    <mxGeometry x="2630" y="1410" width="40" height="40" as="geometry"/>
                </mxCell>
                <mxCell id="669" value="5" style="rounded=0;whiteSpace=wrap;html=1;" parent="1" vertex="1">
                    <mxGeometry x="2710" y="1410" width="40" height="40" as="geometry"/>
                </mxCell>
                <mxCell id="670" value="6" style="rounded=0;whiteSpace=wrap;html=1;" parent="1" vertex="1">
                    <mxGeometry x="2790" y="1410" width="40" height="40" as="geometry"/>
                </mxCell>
                <mxCell id="671" value="7" style="rounded=0;whiteSpace=wrap;html=1;" parent="1" vertex="1">
                    <mxGeometry x="2870" y="1410" width="40" height="40" as="geometry"/>
                </mxCell>
                <mxCell id="672" value="8" style="rounded=0;whiteSpace=wrap;html=1;" parent="1" vertex="1">
                    <mxGeometry x="2950" y="1410" width="40" height="40" as="geometry"/>
                </mxCell>
                <mxCell id="673" value="9" style="rounded=0;whiteSpace=wrap;html=1;" parent="1" vertex="1">
                    <mxGeometry x="3030" y="1410" width="40" height="40" as="geometry"/>
                </mxCell>
                <mxCell id="674" value="10" style="rounded=0;whiteSpace=wrap;html=1;" parent="1" vertex="1">
                    <mxGeometry x="3110" y="1410" width="40" height="40" as="geometry"/>
                </mxCell>
                <mxCell id="675" value="1" style="rounded=0;whiteSpace=wrap;html=1;" parent="1" vertex="1">
                    <mxGeometry x="2390" y="1490" width="40" height="40" as="geometry"/>
                </mxCell>
                <mxCell id="676" value="2" style="rounded=0;whiteSpace=wrap;html=1;" parent="1" vertex="1">
                    <mxGeometry x="2470" y="1490" width="40" height="40" as="geometry"/>
                </mxCell>
                <mxCell id="677" value="3" style="rounded=0;whiteSpace=wrap;html=1;" parent="1" vertex="1">
                    <mxGeometry x="2550" y="1490" width="40" height="40" as="geometry"/>
                </mxCell>
                <mxCell id="678" value="4" style="rounded=0;whiteSpace=wrap;html=1;" parent="1" vertex="1">
                    <mxGeometry x="2630" y="1490" width="40" height="40" as="geometry"/>
                </mxCell>
                <mxCell id="679" value="5" style="rounded=0;whiteSpace=wrap;html=1;" parent="1" vertex="1">
                    <mxGeometry x="2710" y="1490" width="40" height="40" as="geometry"/>
                </mxCell>
                <mxCell id="680" value="6" style="rounded=0;whiteSpace=wrap;html=1;" parent="1" vertex="1">
                    <mxGeometry x="2790" y="1490" width="40" height="40" as="geometry"/>
                </mxCell>
                <mxCell id="681" value="7" style="rounded=0;whiteSpace=wrap;html=1;" parent="1" vertex="1">
                    <mxGeometry x="2870" y="1490" width="40" height="40" as="geometry"/>
                </mxCell>
                <mxCell id="682" value="8" style="rounded=0;whiteSpace=wrap;html=1;" parent="1" vertex="1">
                    <mxGeometry x="2950" y="1490" width="40" height="40" as="geometry"/>
                </mxCell>
                <mxCell id="683" value="9" style="rounded=0;whiteSpace=wrap;html=1;" parent="1" vertex="1">
                    <mxGeometry x="3030" y="1490" width="40" height="40" as="geometry"/>
                </mxCell>
                <mxCell id="684" value="10" style="rounded=0;whiteSpace=wrap;html=1;" parent="1" vertex="1">
                    <mxGeometry x="3110" y="1490" width="40" height="40" as="geometry"/>
                </mxCell>
                <mxCell id="685" value="1" style="rounded=0;whiteSpace=wrap;html=1;" parent="1" vertex="1">
                    <mxGeometry x="2390" y="1570" width="40" height="40" as="geometry"/>
                </mxCell>
                <mxCell id="686" value="2" style="rounded=0;whiteSpace=wrap;html=1;" parent="1" vertex="1">
                    <mxGeometry x="2470" y="1570" width="40" height="40" as="geometry"/>
                </mxCell>
                <mxCell id="687" value="3" style="rounded=0;whiteSpace=wrap;html=1;" parent="1" vertex="1">
                    <mxGeometry x="2550" y="1570" width="40" height="40" as="geometry"/>
                </mxCell>
                <mxCell id="688" value="4" style="rounded=0;whiteSpace=wrap;html=1;" parent="1" vertex="1">
                    <mxGeometry x="2630" y="1570" width="40" height="40" as="geometry"/>
                </mxCell>
                <mxCell id="689" value="5" style="rounded=0;whiteSpace=wrap;html=1;" parent="1" vertex="1">
                    <mxGeometry x="2710" y="1570" width="40" height="40" as="geometry"/>
                </mxCell>
                <mxCell id="690" value="6" style="rounded=0;whiteSpace=wrap;html=1;" parent="1" vertex="1">
                    <mxGeometry x="2790" y="1570" width="40" height="40" as="geometry"/>
                </mxCell>
                <mxCell id="691" value="7" style="rounded=0;whiteSpace=wrap;html=1;" parent="1" vertex="1">
                    <mxGeometry x="2870" y="1570" width="40" height="40" as="geometry"/>
                </mxCell>
                <mxCell id="692" value="8" style="rounded=0;whiteSpace=wrap;html=1;" parent="1" vertex="1">
                    <mxGeometry x="2950" y="1570" width="40" height="40" as="geometry"/>
                </mxCell>
                <mxCell id="693" value="9" style="rounded=0;whiteSpace=wrap;html=1;" parent="1" vertex="1">
                    <mxGeometry x="3030" y="1570" width="40" height="40" as="geometry"/>
                </mxCell>
                <mxCell id="694" value="10" style="rounded=0;whiteSpace=wrap;html=1;" parent="1" vertex="1">
                    <mxGeometry x="3110" y="1570" width="40" height="40" as="geometry"/>
                </mxCell>
                <mxCell id="695" value="1" style="rounded=0;whiteSpace=wrap;html=1;" parent="1" vertex="1">
                    <mxGeometry x="2390" y="1650" width="40" height="40" as="geometry"/>
                </mxCell>
                <mxCell id="696" value="2" style="rounded=0;whiteSpace=wrap;html=1;" parent="1" vertex="1">
                    <mxGeometry x="2470" y="1650" width="40" height="40" as="geometry"/>
                </mxCell>
                <mxCell id="697" value="3" style="rounded=0;whiteSpace=wrap;html=1;" parent="1" vertex="1">
                    <mxGeometry x="2550" y="1650" width="40" height="40" as="geometry"/>
                </mxCell>
                <mxCell id="698" value="4" style="rounded=0;whiteSpace=wrap;html=1;" parent="1" vertex="1">
                    <mxGeometry x="2630" y="1650" width="40" height="40" as="geometry"/>
                </mxCell>
                <mxCell id="699" value="5" style="rounded=0;whiteSpace=wrap;html=1;" parent="1" vertex="1">
                    <mxGeometry x="2710" y="1650" width="40" height="40" as="geometry"/>
                </mxCell>
                <mxCell id="700" value="6" style="rounded=0;whiteSpace=wrap;html=1;" parent="1" vertex="1">
                    <mxGeometry x="2790" y="1650" width="40" height="40" as="geometry"/>
                </mxCell>
                <mxCell id="701" value="7" style="rounded=0;whiteSpace=wrap;html=1;" parent="1" vertex="1">
                    <mxGeometry x="2870" y="1650" width="40" height="40" as="geometry"/>
                </mxCell>
                <mxCell id="702" value="8" style="rounded=0;whiteSpace=wrap;html=1;" parent="1" vertex="1">
                    <mxGeometry x="2950" y="1650" width="40" height="40" as="geometry"/>
                </mxCell>
                <mxCell id="703" value="9" style="rounded=0;whiteSpace=wrap;html=1;" parent="1" vertex="1">
                    <mxGeometry x="3030" y="1650" width="40" height="40" as="geometry"/>
                </mxCell>
                <mxCell id="704" value="10" style="rounded=0;whiteSpace=wrap;html=1;" parent="1" vertex="1">
                    <mxGeometry x="3110" y="1650" width="40" height="40" as="geometry"/>
                </mxCell>
                <mxCell id="705" value="1" style="rounded=0;whiteSpace=wrap;html=1;" parent="1" vertex="1">
                    <mxGeometry x="1590" y="900" width="40" height="40" as="geometry"/>
                </mxCell>
                <mxCell id="706" value="2" style="rounded=0;whiteSpace=wrap;html=1;" parent="1" vertex="1">
                    <mxGeometry x="1670" y="900" width="40" height="40" as="geometry"/>
                </mxCell>
                <mxCell id="707" value="3" style="rounded=0;whiteSpace=wrap;html=1;" parent="1" vertex="1">
                    <mxGeometry x="1750" y="900" width="40" height="40" as="geometry"/>
                </mxCell>
                <mxCell id="708" value="4" style="rounded=0;whiteSpace=wrap;html=1;" parent="1" vertex="1">
                    <mxGeometry x="1830" y="900" width="40" height="40" as="geometry"/>
                </mxCell>
                <mxCell id="709" value="5" style="rounded=0;whiteSpace=wrap;html=1;" parent="1" vertex="1">
                    <mxGeometry x="1910" y="900" width="40" height="40" as="geometry"/>
                </mxCell>
                <mxCell id="710" value="6" style="rounded=0;whiteSpace=wrap;html=1;" parent="1" vertex="1">
                    <mxGeometry x="1990" y="900" width="40" height="40" as="geometry"/>
                </mxCell>
                <mxCell id="711" value="7" style="rounded=0;whiteSpace=wrap;html=1;" parent="1" vertex="1">
                    <mxGeometry x="2070" y="900" width="40" height="40" as="geometry"/>
                </mxCell>
                <mxCell id="712" value="8" style="rounded=0;whiteSpace=wrap;html=1;" parent="1" vertex="1">
                    <mxGeometry x="2150" y="900" width="40" height="40" as="geometry"/>
                </mxCell>
                <mxCell id="713" value="9" style="rounded=0;whiteSpace=wrap;html=1;" parent="1" vertex="1">
                    <mxGeometry x="2230" y="900" width="40" height="40" as="geometry"/>
                </mxCell>
                <mxCell id="714" value="10" style="rounded=0;whiteSpace=wrap;html=1;" parent="1" vertex="1">
                    <mxGeometry x="2310" y="900" width="40" height="40" as="geometry"/>
                </mxCell>
                <mxCell id="715" value="1" style="rounded=0;whiteSpace=wrap;html=1;" parent="1" vertex="1">
                    <mxGeometry x="1590" y="980" width="40" height="40" as="geometry"/>
                </mxCell>
                <mxCell id="716" value="2" style="rounded=0;whiteSpace=wrap;html=1;" parent="1" vertex="1">
                    <mxGeometry x="1670" y="980" width="40" height="40" as="geometry"/>
                </mxCell>
                <mxCell id="717" value="3" style="rounded=0;whiteSpace=wrap;html=1;" parent="1" vertex="1">
                    <mxGeometry x="1750" y="980" width="40" height="40" as="geometry"/>
                </mxCell>
                <mxCell id="718" value="4" style="rounded=0;whiteSpace=wrap;html=1;" parent="1" vertex="1">
                    <mxGeometry x="1830" y="980" width="40" height="40" as="geometry"/>
                </mxCell>
                <mxCell id="719" value="5" style="rounded=0;whiteSpace=wrap;html=1;" parent="1" vertex="1">
                    <mxGeometry x="1910" y="980" width="40" height="40" as="geometry"/>
                </mxCell>
                <mxCell id="720" value="6" style="rounded=0;whiteSpace=wrap;html=1;" parent="1" vertex="1">
                    <mxGeometry x="1990" y="980" width="40" height="40" as="geometry"/>
                </mxCell>
                <mxCell id="721" value="7" style="rounded=0;whiteSpace=wrap;html=1;" parent="1" vertex="1">
                    <mxGeometry x="2070" y="980" width="40" height="40" as="geometry"/>
                </mxCell>
                <mxCell id="722" value="8" style="rounded=0;whiteSpace=wrap;html=1;" parent="1" vertex="1">
                    <mxGeometry x="2150" y="980" width="40" height="40" as="geometry"/>
                </mxCell>
                <mxCell id="723" value="9" style="rounded=0;whiteSpace=wrap;html=1;" parent="1" vertex="1">
                    <mxGeometry x="2230" y="980" width="40" height="40" as="geometry"/>
                </mxCell>
                <mxCell id="724" value="10" style="rounded=0;whiteSpace=wrap;html=1;" parent="1" vertex="1">
                    <mxGeometry x="2310" y="980" width="40" height="40" as="geometry"/>
                </mxCell>
                <mxCell id="725" value="1" style="rounded=0;whiteSpace=wrap;html=1;" parent="1" vertex="1">
                    <mxGeometry x="1590" y="1060" width="40" height="40" as="geometry"/>
                </mxCell>
                <mxCell id="726" value="2" style="rounded=0;whiteSpace=wrap;html=1;" parent="1" vertex="1">
                    <mxGeometry x="1670" y="1060" width="40" height="40" as="geometry"/>
                </mxCell>
                <mxCell id="727" value="3" style="rounded=0;whiteSpace=wrap;html=1;" parent="1" vertex="1">
                    <mxGeometry x="1750" y="1060" width="40" height="40" as="geometry"/>
                </mxCell>
                <mxCell id="728" value="4" style="rounded=0;whiteSpace=wrap;html=1;" parent="1" vertex="1">
                    <mxGeometry x="1830" y="1060" width="40" height="40" as="geometry"/>
                </mxCell>
                <mxCell id="729" value="5" style="rounded=0;whiteSpace=wrap;html=1;" parent="1" vertex="1">
                    <mxGeometry x="1910" y="1060" width="40" height="40" as="geometry"/>
                </mxCell>
                <mxCell id="730" value="6" style="rounded=0;whiteSpace=wrap;html=1;" parent="1" vertex="1">
                    <mxGeometry x="1990" y="1060" width="40" height="40" as="geometry"/>
                </mxCell>
                <mxCell id="731" value="7" style="rounded=0;whiteSpace=wrap;html=1;" parent="1" vertex="1">
                    <mxGeometry x="2070" y="1060" width="40" height="40" as="geometry"/>
                </mxCell>
                <mxCell id="732" value="8" style="rounded=0;whiteSpace=wrap;html=1;" parent="1" vertex="1">
                    <mxGeometry x="2150" y="1060" width="40" height="40" as="geometry"/>
                </mxCell>
                <mxCell id="733" value="9" style="rounded=0;whiteSpace=wrap;html=1;" parent="1" vertex="1">
                    <mxGeometry x="2230" y="1060" width="40" height="40" as="geometry"/>
                </mxCell>
                <mxCell id="734" value="10" style="rounded=0;whiteSpace=wrap;html=1;" parent="1" vertex="1">
                    <mxGeometry x="2310" y="1060" width="40" height="40" as="geometry"/>
                </mxCell>
                <mxCell id="735" value="1" style="rounded=0;whiteSpace=wrap;html=1;" parent="1" vertex="1">
                    <mxGeometry x="1590" y="1140" width="40" height="40" as="geometry"/>
                </mxCell>
                <mxCell id="736" value="2" style="rounded=0;whiteSpace=wrap;html=1;" parent="1" vertex="1">
                    <mxGeometry x="1670" y="1140" width="40" height="40" as="geometry"/>
                </mxCell>
                <mxCell id="737" value="3" style="rounded=0;whiteSpace=wrap;html=1;" parent="1" vertex="1">
                    <mxGeometry x="1750" y="1140" width="40" height="40" as="geometry"/>
                </mxCell>
                <mxCell id="738" value="4" style="rounded=0;whiteSpace=wrap;html=1;" parent="1" vertex="1">
                    <mxGeometry x="1830" y="1140" width="40" height="40" as="geometry"/>
                </mxCell>
                <mxCell id="739" value="5" style="rounded=0;whiteSpace=wrap;html=1;" parent="1" vertex="1">
                    <mxGeometry x="1910" y="1140" width="40" height="40" as="geometry"/>
                </mxCell>
                <mxCell id="740" value="6" style="rounded=0;whiteSpace=wrap;html=1;" parent="1" vertex="1">
                    <mxGeometry x="1990" y="1140" width="40" height="40" as="geometry"/>
                </mxCell>
                <mxCell id="741" value="7" style="rounded=0;whiteSpace=wrap;html=1;" parent="1" vertex="1">
                    <mxGeometry x="2070" y="1140" width="40" height="40" as="geometry"/>
                </mxCell>
                <mxCell id="742" value="8" style="rounded=0;whiteSpace=wrap;html=1;" parent="1" vertex="1">
                    <mxGeometry x="2150" y="1140" width="40" height="40" as="geometry"/>
                </mxCell>
                <mxCell id="743" value="9" style="rounded=0;whiteSpace=wrap;html=1;" parent="1" vertex="1">
                    <mxGeometry x="2230" y="1140" width="40" height="40" as="geometry"/>
                </mxCell>
                <mxCell id="744" value="10" style="rounded=0;whiteSpace=wrap;html=1;" parent="1" vertex="1">
                    <mxGeometry x="2310" y="1140" width="40" height="40" as="geometry"/>
                </mxCell>
                <mxCell id="745" value="1" style="rounded=0;whiteSpace=wrap;html=1;" parent="1" vertex="1">
                    <mxGeometry x="1590" y="1220" width="40" height="40" as="geometry"/>
                </mxCell>
                <mxCell id="746" value="2" style="rounded=0;whiteSpace=wrap;html=1;" parent="1" vertex="1">
                    <mxGeometry x="1670" y="1220" width="40" height="40" as="geometry"/>
                </mxCell>
                <mxCell id="747" value="3" style="rounded=0;whiteSpace=wrap;html=1;" parent="1" vertex="1">
                    <mxGeometry x="1750" y="1220" width="40" height="40" as="geometry"/>
                </mxCell>
                <mxCell id="748" value="4" style="rounded=0;whiteSpace=wrap;html=1;" parent="1" vertex="1">
                    <mxGeometry x="1830" y="1220" width="40" height="40" as="geometry"/>
                </mxCell>
                <mxCell id="749" value="5" style="rounded=0;whiteSpace=wrap;html=1;" parent="1" vertex="1">
                    <mxGeometry x="1910" y="1220" width="40" height="40" as="geometry"/>
                </mxCell>
                <mxCell id="750" value="6" style="rounded=0;whiteSpace=wrap;html=1;" parent="1" vertex="1">
                    <mxGeometry x="1990" y="1220" width="40" height="40" as="geometry"/>
                </mxCell>
                <mxCell id="751" value="7" style="rounded=0;whiteSpace=wrap;html=1;" parent="1" vertex="1">
                    <mxGeometry x="2070" y="1220" width="40" height="40" as="geometry"/>
                </mxCell>
                <mxCell id="752" value="8" style="rounded=0;whiteSpace=wrap;html=1;" parent="1" vertex="1">
                    <mxGeometry x="2150" y="1220" width="40" height="40" as="geometry"/>
                </mxCell>
                <mxCell id="753" value="9" style="rounded=0;whiteSpace=wrap;html=1;" parent="1" vertex="1">
                    <mxGeometry x="2230" y="1220" width="40" height="40" as="geometry"/>
                </mxCell>
                <mxCell id="754" value="10" style="rounded=0;whiteSpace=wrap;html=1;" parent="1" vertex="1">
                    <mxGeometry x="2310" y="1220" width="40" height="40" as="geometry"/>
                </mxCell>
                <mxCell id="755" value="1" style="rounded=0;whiteSpace=wrap;html=1;" parent="1" vertex="1">
                    <mxGeometry x="1590" y="1330" width="40" height="40" as="geometry"/>
                </mxCell>
                <mxCell id="756" value="2" style="rounded=0;whiteSpace=wrap;html=1;" parent="1" vertex="1">
                    <mxGeometry x="1670" y="1330" width="40" height="40" as="geometry"/>
                </mxCell>
                <mxCell id="757" value="3" style="rounded=0;whiteSpace=wrap;html=1;" parent="1" vertex="1">
                    <mxGeometry x="1750" y="1330" width="40" height="40" as="geometry"/>
                </mxCell>
                <mxCell id="758" value="4" style="rounded=0;whiteSpace=wrap;html=1;" parent="1" vertex="1">
                    <mxGeometry x="1830" y="1330" width="40" height="40" as="geometry"/>
                </mxCell>
                <mxCell id="759" value="5" style="rounded=0;whiteSpace=wrap;html=1;" parent="1" vertex="1">
                    <mxGeometry x="1910" y="1330" width="40" height="40" as="geometry"/>
                </mxCell>
                <mxCell id="760" value="6" style="rounded=0;whiteSpace=wrap;html=1;" parent="1" vertex="1">
                    <mxGeometry x="1990" y="1330" width="40" height="40" as="geometry"/>
                </mxCell>
                <mxCell id="761" value="7" style="rounded=0;whiteSpace=wrap;html=1;" parent="1" vertex="1">
                    <mxGeometry x="2070" y="1330" width="40" height="40" as="geometry"/>
                </mxCell>
                <mxCell id="762" value="8" style="rounded=0;whiteSpace=wrap;html=1;" parent="1" vertex="1">
                    <mxGeometry x="2150" y="1330" width="40" height="40" as="geometry"/>
                </mxCell>
                <mxCell id="763" value="9" style="rounded=0;whiteSpace=wrap;html=1;" parent="1" vertex="1">
                    <mxGeometry x="2230" y="1330" width="40" height="40" as="geometry"/>
                </mxCell>
                <mxCell id="764" value="10" style="rounded=0;whiteSpace=wrap;html=1;" parent="1" vertex="1">
                    <mxGeometry x="2310" y="1330" width="40" height="40" as="geometry"/>
                </mxCell>
                <mxCell id="765" value="1" style="rounded=0;whiteSpace=wrap;html=1;" parent="1" vertex="1">
                    <mxGeometry x="1590" y="1410" width="40" height="40" as="geometry"/>
                </mxCell>
                <mxCell id="766" value="2" style="rounded=0;whiteSpace=wrap;html=1;" parent="1" vertex="1">
                    <mxGeometry x="1670" y="1410" width="40" height="40" as="geometry"/>
                </mxCell>
                <mxCell id="767" value="3" style="rounded=0;whiteSpace=wrap;html=1;" parent="1" vertex="1">
                    <mxGeometry x="1750" y="1410" width="40" height="40" as="geometry"/>
                </mxCell>
                <mxCell id="768" value="4" style="rounded=0;whiteSpace=wrap;html=1;" parent="1" vertex="1">
                    <mxGeometry x="1830" y="1410" width="40" height="40" as="geometry"/>
                </mxCell>
                <mxCell id="769" value="5" style="rounded=0;whiteSpace=wrap;html=1;" parent="1" vertex="1">
                    <mxGeometry x="1910" y="1410" width="40" height="40" as="geometry"/>
                </mxCell>
                <mxCell id="770" value="6" style="rounded=0;whiteSpace=wrap;html=1;" parent="1" vertex="1">
                    <mxGeometry x="1990" y="1410" width="40" height="40" as="geometry"/>
                </mxCell>
                <mxCell id="771" value="7" style="rounded=0;whiteSpace=wrap;html=1;" parent="1" vertex="1">
                    <mxGeometry x="2070" y="1410" width="40" height="40" as="geometry"/>
                </mxCell>
                <mxCell id="772" value="8" style="rounded=0;whiteSpace=wrap;html=1;" parent="1" vertex="1">
                    <mxGeometry x="2150" y="1410" width="40" height="40" as="geometry"/>
                </mxCell>
                <mxCell id="773" value="9" style="rounded=0;whiteSpace=wrap;html=1;" parent="1" vertex="1">
                    <mxGeometry x="2230" y="1410" width="40" height="40" as="geometry"/>
                </mxCell>
                <mxCell id="774" value="10" style="rounded=0;whiteSpace=wrap;html=1;" parent="1" vertex="1">
                    <mxGeometry x="2310" y="1410" width="40" height="40" as="geometry"/>
                </mxCell>
                <mxCell id="775" value="1" style="rounded=0;whiteSpace=wrap;html=1;" parent="1" vertex="1">
                    <mxGeometry x="1590" y="1490" width="40" height="40" as="geometry"/>
                </mxCell>
                <mxCell id="776" value="2" style="rounded=0;whiteSpace=wrap;html=1;" parent="1" vertex="1">
                    <mxGeometry x="1670" y="1490" width="40" height="40" as="geometry"/>
                </mxCell>
                <mxCell id="777" value="3" style="rounded=0;whiteSpace=wrap;html=1;" parent="1" vertex="1">
                    <mxGeometry x="1750" y="1490" width="40" height="40" as="geometry"/>
                </mxCell>
                <mxCell id="778" value="4" style="rounded=0;whiteSpace=wrap;html=1;" parent="1" vertex="1">
                    <mxGeometry x="1830" y="1490" width="40" height="40" as="geometry"/>
                </mxCell>
                <mxCell id="779" value="5" style="rounded=0;whiteSpace=wrap;html=1;" parent="1" vertex="1">
                    <mxGeometry x="1910" y="1490" width="40" height="40" as="geometry"/>
                </mxCell>
                <mxCell id="780" value="6" style="rounded=0;whiteSpace=wrap;html=1;" parent="1" vertex="1">
                    <mxGeometry x="1990" y="1490" width="40" height="40" as="geometry"/>
                </mxCell>
                <mxCell id="781" value="7" style="rounded=0;whiteSpace=wrap;html=1;" parent="1" vertex="1">
                    <mxGeometry x="2070" y="1490" width="40" height="40" as="geometry"/>
                </mxCell>
                <mxCell id="782" value="8" style="rounded=0;whiteSpace=wrap;html=1;" parent="1" vertex="1">
                    <mxGeometry x="2150" y="1490" width="40" height="40" as="geometry"/>
                </mxCell>
                <mxCell id="783" value="9" style="rounded=0;whiteSpace=wrap;html=1;" parent="1" vertex="1">
                    <mxGeometry x="2230" y="1490" width="40" height="40" as="geometry"/>
                </mxCell>
                <mxCell id="784" value="10" style="rounded=0;whiteSpace=wrap;html=1;" parent="1" vertex="1">
                    <mxGeometry x="2310" y="1490" width="40" height="40" as="geometry"/>
                </mxCell>
                <mxCell id="785" value="1" style="rounded=0;whiteSpace=wrap;html=1;" parent="1" vertex="1">
                    <mxGeometry x="1590" y="1570" width="40" height="40" as="geometry"/>
                </mxCell>
                <mxCell id="786" value="2" style="rounded=0;whiteSpace=wrap;html=1;" parent="1" vertex="1">
                    <mxGeometry x="1670" y="1570" width="40" height="40" as="geometry"/>
                </mxCell>
                <mxCell id="787" value="3" style="rounded=0;whiteSpace=wrap;html=1;" parent="1" vertex="1">
                    <mxGeometry x="1750" y="1570" width="40" height="40" as="geometry"/>
                </mxCell>
                <mxCell id="788" value="4" style="rounded=0;whiteSpace=wrap;html=1;" parent="1" vertex="1">
                    <mxGeometry x="1830" y="1570" width="40" height="40" as="geometry"/>
                </mxCell>
                <mxCell id="789" value="5" style="rounded=0;whiteSpace=wrap;html=1;" parent="1" vertex="1">
                    <mxGeometry x="1910" y="1570" width="40" height="40" as="geometry"/>
                </mxCell>
                <mxCell id="790" value="6" style="rounded=0;whiteSpace=wrap;html=1;" parent="1" vertex="1">
                    <mxGeometry x="1990" y="1570" width="40" height="40" as="geometry"/>
                </mxCell>
                <mxCell id="791" value="7" style="rounded=0;whiteSpace=wrap;html=1;" parent="1" vertex="1">
                    <mxGeometry x="2070" y="1570" width="40" height="40" as="geometry"/>
                </mxCell>
                <mxCell id="792" value="8" style="rounded=0;whiteSpace=wrap;html=1;" parent="1" vertex="1">
                    <mxGeometry x="2150" y="1570" width="40" height="40" as="geometry"/>
                </mxCell>
                <mxCell id="793" value="9" style="rounded=0;whiteSpace=wrap;html=1;" parent="1" vertex="1">
                    <mxGeometry x="2230" y="1570" width="40" height="40" as="geometry"/>
                </mxCell>
                <mxCell id="794" value="10" style="rounded=0;whiteSpace=wrap;html=1;" parent="1" vertex="1">
                    <mxGeometry x="2310" y="1570" width="40" height="40" as="geometry"/>
                </mxCell>
                <mxCell id="795" value="1" style="rounded=0;whiteSpace=wrap;html=1;" parent="1" vertex="1">
                    <mxGeometry x="1590" y="1650" width="40" height="40" as="geometry"/>
                </mxCell>
                <mxCell id="796" value="2" style="rounded=0;whiteSpace=wrap;html=1;" parent="1" vertex="1">
                    <mxGeometry x="1670" y="1650" width="40" height="40" as="geometry"/>
                </mxCell>
                <mxCell id="797" value="3" style="rounded=0;whiteSpace=wrap;html=1;" parent="1" vertex="1">
                    <mxGeometry x="1750" y="1650" width="40" height="40" as="geometry"/>
                </mxCell>
                <mxCell id="798" value="4" style="rounded=0;whiteSpace=wrap;html=1;" parent="1" vertex="1">
                    <mxGeometry x="1830" y="1650" width="40" height="40" as="geometry"/>
                </mxCell>
                <mxCell id="799" value="5" style="rounded=0;whiteSpace=wrap;html=1;" parent="1" vertex="1">
                    <mxGeometry x="1910" y="1650" width="40" height="40" as="geometry"/>
                </mxCell>
                <mxCell id="800" value="6" style="rounded=0;whiteSpace=wrap;html=1;" parent="1" vertex="1">
                    <mxGeometry x="1990" y="1650" width="40" height="40" as="geometry"/>
                </mxCell>
                <mxCell id="801" value="7" style="rounded=0;whiteSpace=wrap;html=1;" parent="1" vertex="1">
                    <mxGeometry x="2070" y="1650" width="40" height="40" as="geometry"/>
                </mxCell>
                <mxCell id="802" value="8" style="rounded=0;whiteSpace=wrap;html=1;" parent="1" vertex="1">
                    <mxGeometry x="2150" y="1650" width="40" height="40" as="geometry"/>
                </mxCell>
                <mxCell id="803" value="9" style="rounded=0;whiteSpace=wrap;html=1;" parent="1" vertex="1">
                    <mxGeometry x="2230" y="1650" width="40" height="40" as="geometry"/>
                </mxCell>
                <mxCell id="804" value="10" style="rounded=0;whiteSpace=wrap;html=1;" parent="1" vertex="1">
                    <mxGeometry x="2310" y="1650" width="40" height="40" as="geometry"/>
                </mxCell>
            </root>
        </mxGraphModel>
    </diagram>
</mxfile>